<?xml version="1.0" encoding="utf-8"?>
<!-- Generator: Adobe Illustrator 16.0.0, SVG Export Plug-In . SVG Version: 6.00 Build 0)  -->
<!DOCTYPE svg PUBLIC "-//W3C//DTD SVG 1.1//EN" "http://www.w3.org/Graphics/SVG/1.1/DTD/svg11.dtd">
<svg version="1.1" id="Calque_1" xmlns="http://www.w3.org/2000/svg" xmlns:xlink="http://www.w3.org/1999/xlink" x="0px" y="0px"
	 width="56.693px" height="56.693px" viewBox="4.68 4.773 56.693 56.693" enable-background="new 4.68 4.773 56.693 56.693"
	 xml:space="preserve">
<g>
	<path fill="#FFFFFF" d="M33.104,60.817c-15.346,0-27.831-12.453-27.831-27.762c0-15.312,12.485-27.768,27.831-27.768
		c15.343,0,27.828,12.456,27.828,27.768C60.931,48.362,48.447,60.817,33.104,60.817z M33.104,7.709
		c-14.009,0-25.406,11.369-25.406,25.344c0,13.971,11.396,25.339,25.406,25.339c14.008,0,25.402-11.368,25.402-25.339
		C58.506,19.078,47.112,7.709,33.104,7.709z"/>
	<g>
		<path fill="#FFFFFF" d="M15.622,37.969h3.947c1.374,0,2.377,0.217,3.006,0.642c0.629,0.427,0.945,1.082,0.945,1.968v0.698
			c0,1.178-0.582,1.924-1.745,2.233v0.034c0.646,0.133,1.103,0.39,1.37,0.794c0.269,0.399,0.399,0.935,0.399,1.604v1.995
			c0,0.32,0.018,0.584,0.052,0.784c0.031,0.201,0.11,0.394,0.241,0.592h-2.714c-0.095-0.185-0.162-0.354-0.196-0.517
			c-0.031-0.167-0.047-0.456-0.047-0.876v-2.075c0-0.52-0.125-0.881-0.376-1.084c-0.251-0.208-0.68-0.31-1.297-0.31h-0.919v4.861
			h-2.666L15.622,37.969L15.622,37.969z M19.257,42.83c0.531,0,0.932-0.091,1.199-0.271c0.268-0.188,0.4-0.497,0.4-0.923v-0.883
			c0-0.407-0.113-0.706-0.329-0.884c-0.217-0.185-0.56-0.274-1.029-0.274h-1.211v3.234H19.257z"/>
		<path fill="#FFFFFF" d="M25.388,37.969h2.665v11.344h-2.665V37.969z"/>
		<path fill="#FFFFFF" d="M30.886,48.734c-0.693-0.498-1.041-1.205-1.041-2.11v-5.959c0-0.911,0.348-1.61,1.041-2.111
			c0.694-0.496,1.699-0.742,3.005-0.742c1.309,0,2.31,0.244,3.004,0.742c0.696,0.501,1.044,1.2,1.044,2.111v5.959
			c0,0.905-0.348,1.612-1.044,2.11c-0.694,0.491-1.695,0.741-3.004,0.741C32.585,49.475,31.58,49.225,30.886,48.734z M35.273,46.742
			v-6.195c0-0.743-0.462-1.116-1.382-1.116s-1.38,0.373-1.38,1.116v6.195c0,0.741,0.46,1.114,1.38,1.114
			S35.273,47.483,35.273,46.742z"/>
		<path fill="#FFFFFF" d="M39.731,37.969h3.805l1.697,8.121h0.047l1.699-8.121h3.803v11.344H48.26v-8.587h-0.048l-1.935,8.587h-2.23
			l-1.938-8.587h-0.051v8.587h-2.326L39.731,37.969L39.731,37.969z"/>
	</g>
	<g>
		<path fill="#FFFFFF" d="M22.664,34.968c-0.927-0.994-1.391-2.394-1.391-4.206V19.055c0-3.925,1.811-5.888,5.433-5.888
			c1.726,0,3.042,0.493,3.947,1.472c0.904,0.981,1.358,2.39,1.358,4.221v0.421h-3.363v-0.648c0-1.485-0.616-2.231-1.846-2.231
			c-0.667,0-1.163,0.207-1.487,0.616c-0.322,0.408-0.484,1.13-0.484,2.166v4.333h0.063c0.625-1.317,1.704-1.973,3.236-1.973
			c1.293,0,2.276,0.443,2.943,1.329c0.667,0.881,1.003,2.164,1.003,3.846v4.044c0,1.813-0.464,3.212-1.391,4.206
			c-0.927,0.991-2.264,1.486-4.01,1.486C24.928,36.455,23.591,35.959,22.664,34.968z M28.516,31.023v-4.012
			c0-1.487-0.614-2.232-1.843-2.232c-1.229,0-1.843,0.745-1.843,2.232v4.011c0,1.466,0.613,2.198,1.843,2.198
			C27.903,33.22,28.516,32.489,28.516,31.023z"/>
		<path fill="#FFFFFF" d="M35.455,35c-0.896-0.969-1.342-2.359-1.342-4.17v-1.844h3.362v2.005c0,1.488,0.615,2.231,1.844,2.231
			c0.603,0,1.063-0.188,1.376-0.565c0.312-0.378,0.468-1.039,0.468-1.989v-1.846c0-1.032-0.184-1.771-0.55-2.213
			c-0.368-0.441-0.957-0.663-1.778-0.663h-1.196v-3.233h1.294c0.713,0,1.245-0.186,1.6-0.551c0.357-0.367,0.534-0.983,0.534-1.845
			v-1.649c0-0.777-0.161-1.348-0.484-1.713c-0.324-0.366-0.757-0.551-1.295-0.551c-1.143,0-1.715,0.701-1.715,2.103v1.488H34.21
			v-1.196c0-1.813,0.445-3.201,1.342-4.172c0.894-0.97,2.183-1.458,3.863-1.458c1.703,0,2.997,0.483,3.882,1.442
			c0.885,0.959,1.326,2.345,1.326,4.155v0.809c0,1.228-0.205,2.216-0.615,2.958c-0.408,0.746-1.047,1.277-1.908,1.603v0.063
			c0.929,0.347,1.596,0.907,2.007,1.683c0.408,0.777,0.612,1.769,0.612,2.975v2.005c0,1.813-0.447,3.201-1.34,4.157
			c-0.896,0.961-2.216,1.438-3.964,1.438C37.67,36.456,36.35,35.971,35.455,35z"/>
	</g>
</g>
</svg>
