<?xml version="1.0" encoding="utf-8"?>
<!-- Generator: Adobe Illustrator 16.0.0, SVG Export Plug-In . SVG Version: 6.00 Build 0)  -->
<!DOCTYPE svg PUBLIC "-//W3C//DTD SVG 1.1//EN" "http://www.w3.org/Graphics/SVG/1.1/DTD/svg11.dtd">
<svg version="1.1" id="Calque_1" xmlns="http://www.w3.org/2000/svg" xmlns:xlink="http://www.w3.org/1999/xlink" x="0px" y="0px"
	 width="160.898px" height="20.666px" viewBox="0 0 160.898 20.666" enable-background="new 0 0 160.898 20.666"
	 xml:space="preserve">
<g>
	<path fill="#FFFFFF" stroke="#FFFFFF" stroke-width="0.25" stroke-miterlimit="10" d="M7.085,1c0.049,0,0.12,0.005,0.211,0.016
		L7.388,1c0.204,0,0.347,0.176,0.434,0.531c0.021,0.184,0.033,0.294,0.033,0.331c0,0.779-0.314,1.672-0.941,2.681
		C6.734,4.834,6.366,5.249,5.81,5.784L5.221,6.227L4.875,6.423c-0.619,1.925-1.237,3.656-1.854,5.197
		c0.026,0,0.503,0.227,1.436,0.684c0.53,0.223,0.962,0.334,1.291,0.334h0.21c1.16,0,2.259-1.025,3.3-3.078l0.027-0.018h0.078
		C9.407,9.563,9.43,9.6,9.43,9.658V9.69c-1.08,2.124-2.228,3.186-3.445,3.186H5.81c-0.587,0-1.484-0.329-2.689-0.986
		c-0.1-0.043-0.156-0.065-0.175-0.065c-0.3,0.849-0.672,1.274-1.113,1.274H1.749c-0.353,0-0.595-0.219-0.733-0.65
		C1.005,12.408,1,12.358,1,12.304c0-0.418,0.29-0.715,0.874-0.891c0.123,0,0.195-0.043,0.226-0.129
		C2.589,10.3,3.149,8.708,3.785,6.499c0.822-2.677,1.556-4.324,2.199-4.94C6.332,1.187,6.698,1,7.085,1z M1.223,12.269h0.015
		c0.251,0,0.478-0.211,0.685-0.633H1.887C1.443,11.784,1.223,11.994,1.223,12.269z M4.966,6.119c1.137-0.708,1.95-1.728,2.437-3.061
		c0.148-0.469,0.223-0.874,0.223-1.214c0-0.325-0.067-0.525-0.205-0.601H7.357c-0.376,0-0.919,0.856-1.627,2.562
		C5.423,4.645,5.168,5.416,4.966,6.119z"/>
	<path fill="#FFFFFF" stroke="#FFFFFF" stroke-width="0.25" stroke-miterlimit="10" d="M9.777,4.246c0.159,0,0.32,0.118,0.479,0.354
		c0.163,0.236,0.243,0.511,0.243,0.821c0,0.394-0.13,0.803-0.389,1.227C9.856,7.072,9.605,7.284,9.36,7.284V7.051
		c0.266-0.154,0.42-0.498,0.472-1.029c0-0.43-0.233-0.721-0.698-0.873V4.922L9.777,4.246z"/>
	<path fill="#FFFFFF" stroke="#FFFFFF" stroke-width="0.25" stroke-miterlimit="10" d="M12.795,7.7h0.351
		c0.073,0,0.127,0.031,0.162,0.088v0.017c0,0.041-0.148,0.37-0.449,0.986c-0.592,1.282-0.888,2.103-0.888,2.455v0.14
		c0,0.516,0.213,0.896,0.64,1.146c0.116,0.036,0.238,0.054,0.37,0.054c0.32,0,0.672-0.246,1.052-0.741
		c0.375-0.53,0.681-1.216,0.92-2.054c0.014-0.116,0.075-0.172,0.189-0.172c0.054,0.046,0.081,0.08,0.081,0.101
		c-0.23,0.832-0.486,1.478-0.764,1.935c-0.514,0.773-1.021,1.16-1.52,1.16c-1.248,0-1.874-0.47-1.874-1.41
		c0-0.768,0.419-1.944,1.259-3.526C12.42,7.759,12.579,7.7,12.795,7.7z M13.537,5.838c0.233,0,0.385,0.141,0.45,0.423v0.125
		c0,0.354-0.213,0.652-0.634,0.893c-0.117,0.048-0.219,0.072-0.308,0.072c-0.261,0-0.413-0.17-0.457-0.511
		c0-0.416,0.26-0.742,0.78-0.982C13.406,5.857,13.463,5.853,13.537,5.838z"/>
	<path fill="#FFFFFF" stroke="#FFFFFF" stroke-width="0.25" stroke-miterlimit="10" d="M18.402,7.56h0.056
		c0.067,0.044,0.1,0.097,0.091,0.163l-0.006,0.091c-0.014,0.196-0.241,1.338-0.683,3.425c-0.031,0.287-0.053,0.513-0.067,0.683
		l-0.006,0.087c-0.025,0.383,0.002,0.574,0.082,0.574c0.166,0,0.539-0.465,1.12-1.396c0.815-1.383,1.467-2.432,1.951-3.143
		c0.227-0.271,0.393-0.408,0.492-0.408c0.146,0,0.205,0.172,0.179,0.515c-0.039,0.496-0.22,1.401-0.542,2.715
		c-0.069,0.257-0.112,0.525-0.134,0.802c-0.033,0.466,0.042,0.698,0.23,0.698h0.078c0.251,0,0.659-0.445,1.223-1.338
		c0.167-0.292,0.373-0.751,0.618-1.376c0.008,0,0.028-0.011,0.062-0.036h0.069c0.047,0.025,0.068,0.06,0.064,0.107
		c-0.177,0.54-0.445,1.114-0.806,1.717c-0.614,0.94-1.157,1.408-1.626,1.408c-0.405,0-0.667-0.227-0.787-0.678
		c-0.047-0.206-0.061-0.414-0.043-0.629c0.03-0.382,0.224-1.238,0.585-2.566V8.937h-0.018c-0.927,1.616-1.643,2.746-2.146,3.392
		c-0.228,0.32-0.479,0.48-0.754,0.48H17.6c-0.434,0-0.658-0.326-0.677-0.979c-0.007-0.068-0.005-0.165,0.005-0.289
		c0.021-0.313,0.184-1.127,0.483-2.441l0.015-0.163c-0.076,0.051-0.459,0.718-1.154,2c-0.635,1.25-1.058,1.873-1.263,1.873h-0.055
		c-0.295,0-0.491-0.166-0.585-0.498c-0.021-0.188-0.029-0.33-0.021-0.43l0.009-0.178c0.065-0.874,0.518-2.14,1.354-3.803
		c0.119-0.202,0.33-0.302,0.629-0.302h0.356c0.083,0,0.123,0.042,0.12,0.124c-0.898,1.624-1.438,2.996-1.615,4.124
		c-0.068,0.284-0.108,0.512-0.118,0.683l-0.005,0.034h0.038c0.241-0.381,0.793-1.375,1.651-2.982
		C17.538,8.233,18.08,7.56,18.402,7.56z"/>
	<path fill="#FFFFFF" stroke="#FFFFFF" stroke-width="0.25" stroke-miterlimit="10" d="M25.398,7.138
		c0.327,0.025,0.492,0.072,0.492,0.14c0,0.07-0.117,0.158-0.352,0.266L25.456,7.63h0.184c1.073,0,1.806,0.398,2.201,1.191
		c0.069,0.251,0.104,0.45,0.104,0.597v0.108c0,0.771-0.391,1.53-1.171,2.282c-0.336,0.289-0.68,0.523-1.029,0.703
		c1.417-0.359,2.526-1.005,3.331-1.934c0.152-0.173,0.343-0.472,0.574-0.894l0.044-0.018h0.019c0.096,0,0.145,0.041,0.145,0.12
		c-0.455,0.993-1.332,1.808-2.633,2.442c-0.997,0.48-2.181,0.722-3.553,0.722l-0.331-0.022c-0.3,1.377-0.628,3.35-0.986,5.917
		l-0.084,0.056c-0.11,0-0.186-0.109-0.225-0.334c-0.11-0.479-0.164-1.033-0.164-1.662v-0.758c0-1.711,0.267-3.6,0.802-5.67
		C23.366,8.251,24.271,7.138,25.398,7.138z M23.404,12.719h0.493c0.613,0,1.126-0.217,1.538-0.645
		c0.578-0.533,0.995-1.089,1.257-1.669c0.205-0.467,0.311-0.872,0.311-1.214V9.143c0-0.671-0.386-1.099-1.155-1.285
		c-0.141-0.01-0.251-0.015-0.33-0.015H25.25c-0.348,0.312-0.743,1.103-1.192,2.367C23.838,10.86,23.621,11.696,23.404,12.719z"/>
	<path fill="#FFFFFF" stroke="#FFFFFF" stroke-width="0.25" stroke-miterlimit="10" d="M31.709,7.398
		c0.538,0,0.809,0.047,0.809,0.142v0.03c0,0.019-0.035,0.048-0.104,0.086h-0.386c-1.26,0-2.017,0.917-2.27,2.748
		c-0.015,0.192-0.021,0.335-0.021,0.433c0,0.535,0.313,0.967,0.938,1.296c0.264,0.083,0.488,0.124,0.676,0.124
		c0.742,0,1.354-0.42,1.843-1.263c0.04-0.103,0.092-0.208,0.152-0.312c-0.762-0.189-1.316-0.503-1.658-0.945
		c-0.155-0.232-0.233-0.456-0.233-0.66c0-0.461,0.27-0.884,0.807-1.264c0.275-0.125,0.523-0.188,0.743-0.188h0.298
		c0.293,0,0.519,0.18,0.678,0.542c0.059,0.17,0.087,0.352,0.087,0.543c0,0.441-0.128,1.021-0.385,1.742
		c0.222,0.085,0.472,0.125,0.742,0.125c0.382-0.024,0.574-0.061,0.574-0.104c-0.397-0.389-0.598-0.81-0.598-1.262
		c0-0.561,0.32-0.98,0.954-1.256c0.108-0.022,0.207-0.034,0.297-0.034h0.045c0.224,0,0.386,0.124,0.485,0.37
		c0.03,0.082,0.044,0.168,0.044,0.26c0,0.455-0.261,1.076-0.784,1.869h0.021c0.762,0,1.977-0.547,3.646-1.642
		c0.427-0.329,0.744-0.603,0.954-0.823l0.189,0.108c-0.86,1.007-1.288,1.898-1.288,2.67v0.227c0.042,0.831,0.325,1.326,0.845,1.484
		l0.15,0.018c0.561,0,1.126-0.615,1.695-1.849c0.127-0.295,0.282-0.709,0.468-1.241c0.046-0.024,0.088-0.037,0.124-0.037h0.044
		c0.033,0,0.055,0.029,0.064,0.087c-0.242,0.773-0.511,1.419-0.809,1.938c-0.215,0.396-0.525,0.756-0.933,1.084
		c-0.328,0.199-0.766,0.299-1.314,0.299c-0.564,0-1.001-0.281-1.313-0.842c-0.114-0.24-0.173-0.504-0.173-0.783v-0.087
		c0-0.42,0.121-0.889,0.364-1.415c-1.2,0.677-2.12,1.014-2.758,1.014l-0.125-0.017c-0.22,0.091-0.476,0.136-0.763,0.136h-0.235
		c-0.231,0-0.456-0.022-0.676-0.069c-0.309,0.771-0.775,1.307-1.406,1.607c-0.277,0.129-0.729,0.194-1.353,0.194
		c-1.004,0-1.67-0.32-1.993-0.963c-0.099-0.226-0.146-0.481-0.146-0.771c0-0.639,0.173-1.339,0.523-2.098
		C29.741,7.818,30.561,7.398,31.709,7.398z M32.24,9.078c0,0.55,0.396,1,1.188,1.344c0.256-0.744,0.383-1.31,0.383-1.698
		c0-0.428-0.12-0.708-0.361-0.839c-0.072-0.033-0.145-0.049-0.214-0.049c-0.475,0-0.807,0.361-0.994,1.083v0.159H32.24z
		 M34.678,9.127v0.139c0,0.314,0.177,0.671,0.531,1.069c0.213-0.561,0.32-1.015,0.32-1.366c0-0.381-0.099-0.575-0.299-0.575h-0.021
		c-0.185,0-0.311,0.081-0.379,0.243C34.729,8.815,34.678,8.979,34.678,9.127z"/>
	<path fill="#FFFFFF" stroke="#FFFFFF" stroke-width="0.25" stroke-miterlimit="10" d="M45.239,1.243h0.081
		c0.317,0.048,0.477,0.181,0.477,0.402c0.012,0,0.017,0.028,0.017,0.086c0,0.867-0.602,1.915-1.806,3.143
		c-0.019,0-0.149,0.112-0.395,0.334c0.511,0.105,0.94,0.157,1.296,0.157c1.07,0,2.072-0.42,3.001-1.262h0.086
		c0.018,0,0.047,0.023,0.083,0.071V4.19c0,0.094-0.303,0.345-0.904,0.753c-0.709,0.434-1.458,0.649-2.245,0.649
		c-0.412,0-0.889-0.063-1.435-0.194c-0.947,2.703-1.42,4.605-1.42,5.705c0,0.778,0.171,1.24,0.514,1.388
		c0.155,0.063,0.348,0.092,0.574,0.092c1.056,0,2.091-0.715,3.105-2.145c0.188-0.51,0.312-0.775,0.373-0.796h0.061
		c0.02,0,0.049,0.023,0.081,0.07V9.76c-0.302,0.805-0.792,1.517-1.479,2.136c-0.722,0.594-1.429,0.893-2.12,0.893H43.06
		c-0.806,0-1.376-0.355-1.707-1.066c-0.106-0.339-0.163-0.646-0.163-0.933V10.42c0-0.972,0.405-2.585,1.214-4.843
		c0.109-0.224,0.163-0.377,0.163-0.456c-1.043-0.366-1.742-0.548-2.096-0.548h-0.207c-0.574,0-1.054,0.365-1.441,1.089
		c-0.015,0-0.033,0.006-0.06,0.017c-0.083-0.022-0.124-0.044-0.124-0.068v-0.05c0.372-0.819,0.934-1.229,1.686-1.229
		c0.462,0,1.245,0.2,2.346,0.596C43.76,2.472,44.617,1.243,45.239,1.243z M43.716,4.802c0.819-0.778,1.342-1.458,1.566-2.036
		c0.177-0.392,0.265-0.688,0.265-0.894V1.683c0-0.062-0.021-0.117-0.061-0.164c-0.233,0.05-0.551,0.467-0.947,1.248
		C44.348,3.177,44.073,3.856,43.716,4.802z"/>
	<path fill="#FFFFFF" stroke="#FFFFFF" stroke-width="0.25" stroke-miterlimit="10" d="M49.617,7.712h0.014
		c0.576,0,0.973,0.241,1.191,0.721c0,0.028-0.005,0.053-0.016,0.07c-0.058,0.063-0.113,0.067-0.169,0.017
		c-0.236-0.246-0.49-0.369-0.758-0.369h-0.059c-0.83,0-1.914,0.77-3.252,2.303c-0.425,0.586-0.639,1.029-0.639,1.333v0.032
		c0,0.26,0.153,0.39,0.456,0.39c0.585,0,1.396-0.485,2.429-1.457l0.502-0.586c0.375-0.46,0.793-0.909,1.252-1.344
		c0.117-0.107,0.229-0.19,0.341-0.248c0.111-0.057,0.212-0.087,0.303-0.087c0.184,0,0.289,0.129,0.31,0.384v0.017
		c0,0.244-0.185,0.943-0.553,2.091c-0.096,0.356-0.142,0.672-0.137,0.941c0.008,0.271,0.089,0.408,0.24,0.408
		c0.589,0,1.268-0.872,2.035-2.613c0.06-0.082,0.099-0.125,0.121-0.125h0.065c0.02,0,0.049,0.025,0.081,0.071v0.033
		c-0.188,0.529-0.504,1.136-0.947,1.826c-0.597,0.846-1.15,1.269-1.663,1.269c-0.517,0.01-0.796-0.343-0.834-1.063
		c-0.041-0.718,0.223-1.568,0.791-2.553c0.102-0.275-0.405,0.226-1.518,1.51c-0.201,0.261-0.628,0.688-1.277,1.279
		c-0.727,0.563-1.371,0.844-1.93,0.844c-0.511,0-0.859-0.24-1.054-0.722l-0.016-0.21v-0.104c0-0.803,0.704-1.787,2.113-2.952
		C48.076,8.081,48.933,7.712,49.617,7.712z"/>
	<path fill="#FFFFFF" stroke="#FFFFFF" stroke-width="0.25" stroke-miterlimit="10" d="M56.833,7.56h0.016
		c0.094,0,0.137,0.068,0.126,0.201c-0.008,0.075-0.216,0.939-0.623,2.589c-0.074,0.317-0.134,0.687-0.187,1.105
		c-0.019,0.68,0.077,1.021,0.282,1.021h0.039c0.233-0.072,0.599-0.459,1.097-1.16c0.496-0.703,0.854-1.237,1.075-1.609l0.083-0.055
		c0.06,0,0.099,0.023,0.112,0.071v0.015c-0.083,0.283-0.475,0.91-1.173,1.884c-0.7,0.974-1.251,1.446-1.655,1.423H55.9
		c-0.378,0-0.603-0.514-0.667-1.534l0.023-0.271c0.038-0.432,0.207-1.195,0.504-2.286c-0.008-0.021-0.011-0.039-0.011-0.049h-0.019
		c-1.12,1.712-1.906,2.88-2.368,3.5c-0.214,0.272-0.417,0.406-0.604,0.406H52.6c-0.285,0-0.464-0.205-0.536-0.623
		c-0.015-0.093-0.017-0.194-0.011-0.304l0.017-0.14c0.074-0.852,0.559-2.131,1.446-3.842C53.641,7.7,53.85,7.599,54.15,7.599h0.392
		c0.042,0.021,0.07,0.057,0.082,0.107c-1.063,1.896-1.648,3.468-1.756,4.713l-0.006,0.07l0.011,0.092
		c0.141-0.008,0.55-0.532,1.224-1.576C55.516,8.711,56.428,7.56,56.833,7.56z"/>
	<path fill="#FFFFFF" stroke="#FFFFFF" stroke-width="0.25" stroke-miterlimit="10" d="M62.392,1.243h0.08
		c0.319,0.048,0.479,0.181,0.479,0.402c0.01,0,0.016,0.028,0.016,0.086c0,0.867-0.604,1.915-1.804,3.143
		c-0.019,0-0.148,0.112-0.395,0.334c0.508,0.105,0.94,0.157,1.294,0.157c1.072,0,2.072-0.42,3.001-1.262h0.087
		c0.019,0,0.045,0.023,0.081,0.071V4.19c0,0.094-0.303,0.345-0.905,0.753c-0.707,0.434-1.454,0.649-2.241,0.649
		c-0.413,0-0.893-0.063-1.437-0.194c-0.945,2.703-1.421,4.605-1.421,5.705c0,0.778,0.172,1.24,0.517,1.388
		c0.154,0.063,0.348,0.092,0.573,0.092c1.056,0,2.092-0.715,3.104-2.145c0.188-0.51,0.313-0.775,0.374-0.796h0.061
		c0.022,0,0.048,0.023,0.08,0.07V9.76c-0.298,0.805-0.792,1.517-1.479,2.136c-0.722,0.594-1.43,0.893-2.119,0.893h-0.125
		c-0.805,0-1.373-0.355-1.706-1.066c-0.108-0.339-0.163-0.646-0.163-0.933V10.42c0-0.972,0.405-2.585,1.213-4.843
		C59.666,5.353,59.72,5.2,59.72,5.121c-1.043-0.366-1.741-0.548-2.095-0.548h-0.208c-0.574,0-1.056,0.365-1.441,1.089
		c-0.014,0-0.034,0.006-0.06,0.017c-0.083-0.022-0.124-0.044-0.124-0.068v-0.05c0.372-0.819,0.934-1.229,1.685-1.229
		c0.461,0,1.244,0.2,2.346,0.596C60.915,2.472,61.771,1.243,62.392,1.243z M60.87,4.802c0.817-0.778,1.342-1.458,1.563-2.036
		C62.611,2.375,62.7,2.078,62.7,1.873v-0.19c0-0.062-0.021-0.117-0.06-0.164c-0.235,0.05-0.553,0.467-0.95,1.248
		C61.5,3.177,61.228,3.856,60.87,4.802z"/>
	<path fill="#FFFFFF" stroke="#FFFFFF" stroke-width="0.25" stroke-miterlimit="10" d="M66.662,11.944
		c0.28,0.05,0.422,0.177,0.422,0.38v0.057c0,0.302-0.188,0.521-0.563,0.657l-0.159,0.031c-0.277-0.039-0.416-0.178-0.416-0.42
		v-0.017c0-0.304,0.196-0.528,0.59-0.671C66.562,11.962,66.602,11.954,66.662,11.944z"/>
	<path fill="#FFFFFF" stroke="#FFFFFF" stroke-width="0.25" stroke-miterlimit="10" d="M69.009,11.944
		c0.279,0.05,0.417,0.177,0.417,0.38v0.057c0,0.302-0.188,0.521-0.561,0.657l-0.157,0.031c-0.277-0.039-0.416-0.178-0.416-0.42
		v-0.017c0-0.304,0.194-0.528,0.589-0.671C68.907,11.962,68.95,11.954,69.009,11.944z"/>
	<path fill="#FFFFFF" stroke="#FFFFFF" stroke-width="0.25" stroke-miterlimit="10" d="M71.353,11.944
		c0.283,0.05,0.424,0.177,0.424,0.38v0.057c0,0.302-0.188,0.521-0.563,0.657l-0.157,0.031c-0.278-0.039-0.417-0.178-0.417-0.42
		v-0.017c0-0.304,0.195-0.528,0.59-0.671C71.253,11.962,71.295,11.954,71.353,11.944z"/>
	<path fill="#FFFFFF" stroke="#FFFFFF" stroke-width="0.25" stroke-miterlimit="10" d="M78.964,7.631h0.125
		c0.479,0,0.718,0.311,0.718,0.932c0,0.089-0.035,0.149-0.1,0.173h-0.085c-0.056-0.018-0.084-0.061-0.084-0.125V8.384
		c0-0.36-0.169-0.541-0.515-0.541c-0.587,0-1.34,0.615-2.259,1.842c-0.479,0.74-0.722,1.325-0.722,1.755
		c0,0.35,0.158,0.617,0.474,0.808c0.125,0.067,0.291,0.09,0.496,0.063c0.202-0.025,0.384-0.072,0.543-0.142
		c0.504-0.209,0.936-0.485,1.295-0.829c0.277-0.244,0.527-0.473,0.751-0.681l1.113-1.037c0.021,0,0.049,0.026,0.08,0.071v0.033
		c-1.079,1.196-1.948,2-2.604,2.415l-0.623,0.348c-0.097,0.051-0.192,0.097-0.287,0.136c-0.385,0.169-0.703,0.254-0.966,0.254H76.11
		c-0.502,0-0.853-0.274-1.051-0.829c-0.042-0.158-0.061-0.314-0.061-0.47c0-0.977,0.526-1.941,1.583-2.899
		C77.471,8.039,78.266,7.689,78.964,7.631z"/>
	<path fill="#FFFFFF" stroke="#FFFFFF" stroke-width="0.25" stroke-miterlimit="10" d="M81.511,4.246
		c0.158,0,0.319,0.118,0.479,0.354c0.161,0.236,0.243,0.511,0.243,0.821c0,0.394-0.129,0.803-0.386,1.227
		c-0.254,0.425-0.508,0.637-0.751,0.637V7.051c0.261-0.154,0.418-0.499,0.466-1.029c0-0.43-0.229-0.721-0.697-0.873V4.922
		L81.511,4.246z"/>
	<path fill="#FFFFFF" stroke="#FFFFFF" stroke-width="0.25" stroke-miterlimit="10" d="M85.965,7.521
		c0.421,0,0.758,0.202,1.007,0.603c0.013,0.063,0.022,0.113,0.022,0.156v0.087c0,0.608-0.72,1.367-2.157,2.28
		c-0.411,0.226-0.804,0.417-1.176,0.581c-0.01,0.142-0.017,0.246-0.017,0.313c0,0.424,0.185,0.716,0.552,0.878
		c0.115,0.036,0.2,0.055,0.249,0.055h0.105c0.562,0,1.249-0.363,2.057-1.095c0.425-0.383,0.879-0.864,1.372-1.442
		c0.171-0.214,0.277-0.325,0.313-0.337c0.036-0.014,0.065,0.001,0.094,0.046c0.007,0.023-0.024,0.085-0.087,0.176
		c-0.403,0.576-0.972,1.197-1.701,1.861c-0.907,0.771-1.732,1.158-2.481,1.158c-0.563,0-0.992-0.209-1.285-0.628
		c-0.082-0.108-0.145-0.247-0.188-0.417c-0.042-0.168-0.061-0.302-0.05-0.396c0-0.861,0.527-1.855,1.582-2.979
		C84.853,7.823,85.448,7.521,85.965,7.521z M83.749,10.946c0.488-0.216,1.001-0.502,1.54-0.86C86.263,9.392,86.75,8.79,86.75,8.28
		c-0.024-0.151-0.1-0.226-0.226-0.226h-0.066c-0.395,0-0.955,0.378-1.686,1.137C84.24,9.802,83.901,10.387,83.749,10.946z"/>
	<path fill="#FFFFFF" stroke="#FFFFFF" stroke-width="0.25" stroke-miterlimit="10" d="M96.377,1.21
		c0.327,0.055,0.486,0.23,0.486,0.526v0.017c0,0.71-0.486,1.608-1.462,2.692c-0.244,0.239-0.505,0.477-0.783,0.715
		c0.443,0.105,0.848,0.157,1.207,0.157h0.189c1.061,0,2.063-0.419,3.013-1.257h0.065c0.065,0.021,0.099,0.044,0.102,0.072v0.07
		c-0.971,0.894-2.029,1.343-3.179,1.343h-0.189c-0.383,0-0.833-0.063-1.354-0.189c-0.962,2.646-1.442,4.539-1.442,5.677v0.211
		c0,0.597,0.155,0.979,0.469,1.149c0.152,0.071,0.322,0.107,0.508,0.107h0.168c1.021,0,2.045-0.664,3.07-1.993
		c0.365-0.583,0.563-0.88,0.597-0.89h0.108c0.027,0.005,0.056,0.032,0.08,0.087c-0.853,1.539-1.885,2.505-3.095,2.899
		c-0.353,0.082-0.629,0.123-0.829,0.123c-0.927,0-1.554-0.396-1.884-1.19c-0.083-0.32-0.125-0.617-0.125-0.89v-0.086
		c0-0.382,0.036-0.756,0.104-1.122V9.425H92.18c-0.458,0.578-1.032,1.015-1.718,1.311c0.199,0.255,0.299,0.508,0.299,0.754v0.069
		c0,0.611-0.891,1.325-2.672,2.146c-0.877,0.376-1.528,0.563-1.951,0.563h-0.146c-0.217,0-0.329-0.105-0.342-0.313
		c0.145-0.563,1.148-1.433,3.014-2.606c0.357-0.173,0.541-0.26,0.546-0.26c-0.62-0.6-1.058-1.045-1.311-1.333
		c-0.184-0.26-0.274-0.562-0.274-0.906c0-0.609,0.302-1.041,0.908-1.293c0.225-0.085,0.456-0.125,0.699-0.125
		c0.463,0,1,0.117,1.615,0.352l0.021,0.088v0.015c0,0.02-0.021,0.037-0.065,0.054H90.76c-0.519-0.161-0.938-0.243-1.251-0.243
		h-0.213c-0.354,0-0.602,0.128-0.743,0.385c-0.026,0.08-0.042,0.15-0.042,0.212V8.36c0,0.534,0.53,1.205,1.593,2.01
		c0,0.014,0.065,0.08,0.189,0.194c0.651-0.229,1.324-0.771,2.017-1.625c0.322-1.392,0.674-2.532,1.058-3.425
		c0.018-0.026,0.074-0.168,0.173-0.421c-1.068-0.372-1.838-0.559-2.313-0.559c-0.662,0-1.176,0.362-1.549,1.084l-0.103,0.016h-0.022
		c-0.022,0-0.05-0.024-0.087-0.072V5.545c0.082-0.31,0.345-0.644,0.785-0.996c0.29-0.165,0.585-0.246,0.889-0.246h0.153
		c0.409,0,1.189,0.194,2.35,0.58C94.722,2.435,95.633,1.21,96.377,1.21z M86.052,13.704c0,0.104,0.136,0.158,0.405,0.158
		c0.772,0,1.611-0.273,2.52-0.818c0.44-0.343,0.662-0.729,0.662-1.154c0-0.218-0.093-0.427-0.277-0.629
		c-0.585,0.221-1.477,0.816-2.67,1.784C86.263,13.422,86.052,13.644,86.052,13.704z M94.725,4.744
		c0.505-0.438,0.895-0.863,1.165-1.279c0.479-0.708,0.722-1.29,0.722-1.745c-0.021-0.14-0.051-0.211-0.089-0.211h-0.037
		c-0.288,0.202-0.522,0.468-0.702,0.803C95.501,2.809,95.147,3.621,94.725,4.744z"/>
	<path fill="#FFFFFF" stroke="#FFFFFF" stroke-width="0.25" stroke-miterlimit="10" d="M109.952,1.221h0.064
		c0.225,0,0.423,0.084,0.595,0.249c0.07,0.119,0.103,0.249,0.103,0.384v0.142c0,0.929-0.42,2.227-1.256,3.896
		c-0.382,0.723-0.876,1.448-1.479,2.177c-0.229,0.308-0.709,0.756-1.436,1.349c-0.343,0.177-0.59,0.504-0.74,0.977
		c-0.151,0.477-0.229,0.952-0.229,1.429c0,0.45,0.146,0.739,0.434,0.86l0.146,0.019c0.778,0,1.68-1.013,2.709-3.036l0.104-0.02
		h0.021c0.022,0,0.048,0.022,0.08,0.069v0.056c-0.33,0.751-0.78,1.481-1.355,2.193c-0.728,0.856-1.387,1.245-1.974,1.169
		c-0.587-0.072-0.949-0.33-1.086-0.762c-0.043-0.186-0.064-0.337-0.064-0.462c0-0.858,0.554-2.597,1.664-5.211
		C107.689,3.047,108.921,1.221,109.952,1.221z M106.272,9.317c0.793-0.61,1.382-1.156,1.768-1.638
		c0.382-0.478,0.754-1.062,1.109-1.749c0.877-1.698,1.318-3.01,1.318-3.934V1.909c0-0.223-0.049-0.336-0.142-0.336
		c-0.404,0.083-1.193,1.335-2.366,3.756C107.354,6.665,106.793,7.995,106.272,9.317z"/>
	<path fill="#FFFFFF" stroke="#FFFFFF" stroke-width="0.25" stroke-miterlimit="10" d="M112.314,4.246
		c0.16,0,0.319,0.118,0.479,0.354c0.161,0.236,0.243,0.511,0.243,0.821c0,0.394-0.131,0.803-0.387,1.227
		c-0.257,0.425-0.508,0.637-0.753,0.637V7.051c0.266-0.154,0.421-0.499,0.471-1.029c0-0.43-0.232-0.721-0.696-0.873V4.922
		L112.314,4.246z"/>
	<path fill="#FFFFFF" stroke="#FFFFFF" stroke-width="0.25" stroke-miterlimit="10" d="M116.659,7.648
		c0.303,0,0.572,0.17,0.808,0.507c0.039,0.093,0.061,0.172,0.061,0.245v0.082c0,0.394-0.259,0.849-0.775,1.365
		c-0.488,0.438-0.905,0.75-1.256,0.937l-0.728,0.427c-0.019,0.042-0.027,0.122-0.027,0.245v0.093c0,0.435,0.178,0.728,0.53,0.882
		c0.079,0.024,0.162,0.037,0.245,0.037c0.512,0,1.109-0.417,1.79-1.257c0.378-0.492,0.703-0.991,0.974-1.495
		c0.036-0.031,0.066-0.049,0.091-0.049c0.051,0,0.083,0.038,0.098,0.109v0.011c-0.152,0.326-0.429,0.777-0.835,1.354
		c-0.223,0.303-0.506,0.611-0.846,0.928c-0.593,0.5-1.109,0.752-1.555,0.752h-0.113c-0.535,0-0.93-0.291-1.187-0.875
		c-0.048-0.139-0.079-0.332-0.099-0.582c0-0.574,0.212-1.227,0.636-1.962C115.24,8.233,115.97,7.648,116.659,7.648z M114.824,10.931
		c0.473-0.248,0.971-0.577,1.494-0.98c0.664-0.567,0.995-1.066,0.995-1.501V8.428c0-0.155-0.065-0.241-0.198-0.26h-0.045
		c-0.347,0-0.854,0.411-1.516,1.234C115.15,9.956,114.906,10.465,114.824,10.931z M116.821,6.028h0.45
		c0.04,0,0.066,0.016,0.082,0.048v0.042c0,0.043-0.17,0.27-0.51,0.672c-0.389,0.525-0.626,0.826-0.705,0.905l-0.06,0.011h-0.032
		c-0.029-0.013-0.049-0.037-0.061-0.071c0.039-0.119,0.288-0.638,0.743-1.56C116.763,6.044,116.793,6.028,116.821,6.028z"/>
	<path fill="#FFFFFF" stroke="#FFFFFF" stroke-width="0.25" stroke-miterlimit="10" d="M122.878,7.56h0.055
		c0.068,0.044,0.101,0.097,0.091,0.163l-0.004,0.091c-0.015,0.196-0.242,1.338-0.683,3.425c-0.033,0.287-0.057,0.513-0.069,0.683
		l-0.007,0.087c-0.025,0.383,0.003,0.574,0.081,0.574c0.167,0,0.542-0.465,1.121-1.396c0.816-1.383,1.468-2.432,1.95-3.143
		c0.229-0.271,0.396-0.408,0.495-0.408c0.145,0,0.203,0.172,0.178,0.515c-0.041,0.496-0.22,1.401-0.541,2.715
		c-0.069,0.257-0.113,0.525-0.135,0.802c-0.034,0.466,0.044,0.698,0.23,0.698h0.076c0.252,0,0.66-0.445,1.225-1.338
		c0.166-0.292,0.372-0.751,0.619-1.376c0.005,0,0.025-0.011,0.06-0.036h0.068c0.048,0.025,0.069,0.06,0.063,0.107
		c-0.175,0.54-0.442,1.114-0.807,1.717c-0.612,0.94-1.154,1.408-1.624,1.408c-0.402,0-0.667-0.227-0.786-0.678
		c-0.047-0.206-0.063-0.414-0.042-0.629c0.027-0.382,0.222-1.238,0.584-2.566V8.937h-0.017c-0.929,1.616-1.643,2.746-2.146,3.392
		c-0.229,0.32-0.479,0.48-0.753,0.48h-0.086c-0.435,0-0.659-0.326-0.678-0.979c-0.009-0.068-0.007-0.165,0.004-0.289
		c0.023-0.313,0.185-1.127,0.485-2.441l0.013-0.163c-0.073,0.051-0.459,0.718-1.151,2c-0.637,1.25-1.058,1.873-1.263,1.873h-0.056
		c-0.296,0-0.491-0.166-0.585-0.498c-0.021-0.188-0.028-0.33-0.021-0.43l0.01-0.178c0.065-0.874,0.516-2.14,1.354-3.803
		c0.119-0.202,0.33-0.302,0.629-0.302h0.357c0.083,0,0.123,0.042,0.119,0.124c-0.899,1.624-1.438,2.996-1.613,4.124
		c-0.07,0.284-0.108,0.512-0.121,0.683l-0.004,0.034h0.037c0.243-0.381,0.795-1.375,1.652-2.982
		C122.014,8.233,122.559,7.56,122.878,7.56z"/>
	<path fill="#FFFFFF" stroke="#FFFFFF" stroke-width="0.25" stroke-miterlimit="10" d="M137.768,1.21
		c0.324,0.063,0.488,0.179,0.488,0.353c0.018,0,0.031,0.064,0.043,0.19c0,0.636-0.439,1.481-1.316,2.537
		c-0.336,0.333-0.652,0.625-0.954,0.871c0.476,0.105,0.884,0.157,1.23,0.157h0.211c1.024,0,2.021-0.419,2.991-1.257h0.064
		c0.019,0,0.055,0.029,0.108,0.086c-0.021,0.118-0.34,0.374-0.96,0.771c-0.705,0.419-1.466,0.628-2.287,0.628h-0.108
		c-0.419,0-0.878-0.063-1.376-0.189c-0.977,2.643-1.463,4.57-1.463,5.781c0,0.693,0.18,1.125,0.532,1.295
		c0.165,0.047,0.335,0.069,0.51,0.069h0.081c1.271,0,2.479-0.931,3.624-2.795c0-0.043,0.042-0.079,0.131-0.107
		c0.059,0.019,0.099,0.049,0.123,0.091v0.033c-0.389,0.766-0.948,1.464-1.674,2.095c-0.755,0.607-1.497,0.91-2.227,0.91
		c-0.896,0-1.51-0.358-1.844-1.082c-0.125-0.342-0.188-0.715-0.188-1.122c0.039-0.679,0.116-1.232,0.233-1.659V8.849h-0.024
		c-0.458,0.941-0.98,1.587-1.569,1.941c-0.253,0.09-0.38,0.148-0.38,0.172c-0.315,0.78-0.779,1.305-1.383,1.57
		c-0.216,0.143-0.683,0.214-1.396,0.214c-0.969,0-1.628-0.321-1.973-0.96c-0.084-0.252-0.124-0.467-0.124-0.648v-0.158
		c0-0.571,0.155-1.223,0.465-1.957c0.48-0.911,1.321-1.366,2.521-1.366c0.522,0.02,0.784,0.06,0.784,0.125v0.071
		c0,0.02-0.027,0.042-0.082,0.07h-0.341c-1.106,0-1.827,0.646-2.161,1.939c-0.111,0.56-0.168,0.928-0.168,1.101v0.103
		c0,0.633,0.346,1.088,1.034,1.367c0.194,0.057,0.388,0.086,0.573,0.086c0.76,0,1.38-0.438,1.864-1.312
		c0-0.019,0.037-0.101,0.107-0.244h-0.042c-0.797,0-1.367-0.356-1.717-1.067c-0.061-0.241-0.088-0.403-0.088-0.488
		c0-0.667,0.346-1.145,1.041-1.434c0.157-0.058,0.343-0.088,0.552-0.088h0.212c0.386,0,0.643,0.275,0.766,0.826
		c0,0.122,0.007,0.209,0.02,0.259c0,0.412-0.12,0.977-0.362,1.695c0.376-0.108,0.794-0.516,1.251-1.225
		c0.678-1.169,1.038-1.936,1.085-2.302c0.225-0.696,0.479-1.378,0.765-2.048c-1.074-0.372-1.845-0.559-2.313-0.559
		c-0.672,0-1.189,0.357-1.551,1.066l-0.06,0.035h-0.065c-0.019,0-0.056-0.028-0.106-0.087c0.389-0.827,0.954-1.242,1.695-1.242
		h0.172c0.384,0,1.153,0.194,2.31,0.58C136.163,2.435,137.069,1.21,137.768,1.21z M130.41,9.321c0,0.676,0.396,1.137,1.188,1.381
		c0.242-0.739,0.362-1.3,0.362-1.68V8.92c0-0.548-0.203-0.823-0.611-0.823c-0.306,0-0.585,0.232-0.829,0.699
		C130.461,8.98,130.425,9.157,130.41,9.321z M136.137,4.759c0.821-0.739,1.357-1.419,1.609-2.043
		c0.185-0.359,0.274-0.669,0.274-0.925V1.667c0-0.03-0.014-0.082-0.042-0.158h-0.022c-0.314,0-0.778,0.729-1.396,2.183
		C136.391,4.102,136.249,4.456,136.137,4.759z"/>
	<path fill="#FFFFFF" stroke="#FFFFFF" stroke-width="0.25" stroke-miterlimit="10" d="M139.76,7.7h0.354
		c0.072,0,0.127,0.031,0.163,0.088v0.017c0,0.041-0.149,0.37-0.449,0.986c-0.595,1.282-0.891,2.103-0.891,2.455v0.14
		c0,0.516,0.214,0.896,0.641,1.146c0.115,0.036,0.237,0.054,0.367,0.054c0.321,0,0.672-0.246,1.053-0.741
		c0.374-0.53,0.683-1.216,0.92-2.054c0.016-0.116,0.079-0.172,0.19-0.172c0.056,0.046,0.079,0.08,0.079,0.101
		c-0.23,0.832-0.484,1.478-0.763,1.935c-0.514,0.773-1.02,1.16-1.516,1.16c-1.25,0-1.877-0.47-1.877-1.41
		c0-0.768,0.42-1.944,1.259-3.526C139.387,7.759,139.544,7.7,139.76,7.7z M140.504,5.838c0.233,0,0.385,0.141,0.45,0.423v0.125
		c0,0.354-0.211,0.652-0.635,0.893c-0.114,0.048-0.22,0.072-0.311,0.072c-0.26,0-0.411-0.17-0.454-0.511
		c0-0.416,0.26-0.742,0.779-0.982C140.373,5.857,140.429,5.853,140.504,5.838z"/>
	<path fill="#FFFFFF" stroke="#FFFFFF" stroke-width="0.25" stroke-miterlimit="10" d="M144.08,7.735
		c0.521,0,0.779,0.04,0.779,0.123V7.93c0,0.019-0.027,0.041-0.083,0.07h-0.388c-1.188,0-1.897,0.855-2.14,2.562
		c-0.041,0.146-0.063,0.309-0.063,0.494v0.104c0,0.638,0.343,1.097,1.03,1.37c0.184,0.059,0.36,0.087,0.53,0.087
		c0.724,0,1.318-0.427,1.788-1.28c0-0.018,0.042-0.111,0.125-0.281c-0.786,0-1.349-0.343-1.687-1.035
		c-0.069-0.242-0.102-0.425-0.102-0.548c0-0.709,0.385-1.201,1.15-1.473l0.35-0.054c0.671,0,1.007,0.362,1.007,1.089
		c0,0.426-0.117,1-0.352,1.721c0.465-0.167,0.906-0.525,1.339-1.071l0.102-0.018c0.07,0.016,0.104,0.055,0.104,0.12
		c-0.413,0.592-0.941,0.997-1.58,1.214c-0.043,0-0.12,0.145-0.229,0.439c-0.174,0.346-0.436,0.668-0.78,0.963
		c-0.365,0.293-0.9,0.438-1.604,0.438h-0.104c-0.91,0-1.543-0.288-1.889-0.86c-0.124-0.263-0.185-0.515-0.185-0.754v-0.194
		c0-0.688,0.196-1.417,0.594-2.194C142.289,8.103,143.051,7.735,144.08,7.735z M144.617,9.402c0,0.68,0.375,1.137,1.126,1.371
		c0.015,0,0.021-0.004,0.021-0.017c0.233-0.695,0.354-1.249,0.354-1.652V8.963c0-0.465-0.175-0.73-0.516-0.79h-0.083
		c-0.281,0-0.545,0.216-0.786,0.648C144.667,9.025,144.628,9.217,144.617,9.402z"/>
	<path fill="#FFFFFF" stroke="#FFFFFF" stroke-width="0.25" stroke-miterlimit="10" d="M151.473,7.56h0.02
		c0.095,0,0.134,0.068,0.125,0.201c-0.009,0.075-0.216,0.939-0.622,2.589c-0.073,0.317-0.137,0.687-0.186,1.105
		c-0.019,0.68,0.073,1.021,0.28,1.021h0.038c0.232-0.072,0.602-0.459,1.099-1.16c0.494-0.703,0.854-1.237,1.074-1.609l0.081-0.055
		c0.059,0,0.1,0.023,0.115,0.071v0.015c-0.083,0.283-0.477,0.91-1.174,1.884c-0.699,0.974-1.253,1.446-1.655,1.423h-0.126
		c-0.379,0-0.601-0.514-0.665-1.534l0.021-0.271c0.041-0.432,0.207-1.195,0.505-2.286c-0.008-0.021-0.012-0.039-0.012-0.049h-0.017
		c-1.117,1.712-1.907,2.88-2.369,3.5c-0.215,0.272-0.416,0.406-0.606,0.406h-0.155c-0.283,0-0.463-0.205-0.535-0.623
		c-0.017-0.093-0.021-0.194-0.013-0.304l0.018-0.14c0.076-0.852,0.559-2.131,1.446-3.842c0.124-0.202,0.335-0.302,0.635-0.302h0.392
		c0.044,0.021,0.068,0.057,0.079,0.107c-1.063,1.896-1.646,3.468-1.756,4.713l-0.004,0.07l0.011,0.092
		c0.143-0.008,0.549-0.532,1.225-1.576C150.158,8.711,151.07,7.56,151.473,7.56z"/>
	<path fill="#FFFFFF" stroke="#FFFFFF" stroke-width="0.25" stroke-miterlimit="10" d="M153.897,11.944
		c0.282,0.05,0.422,0.177,0.422,0.38v0.057c0,0.302-0.187,0.521-0.562,0.657l-0.16,0.031c-0.275-0.039-0.414-0.178-0.414-0.42
		v-0.017c0-0.304,0.195-0.528,0.59-0.671C153.797,11.962,153.84,11.954,153.897,11.944z"/>
	<path fill="#FFFFFF" stroke="#FFFFFF" stroke-width="0.25" stroke-miterlimit="10" d="M156.242,11.944
		c0.283,0.05,0.424,0.177,0.424,0.38v0.057c0,0.302-0.188,0.521-0.563,0.657l-0.156,0.031c-0.276-0.039-0.419-0.178-0.419-0.42
		v-0.017c0-0.304,0.198-0.528,0.595-0.671C156.143,11.962,156.187,11.954,156.242,11.944z"/>
	<path fill="#FFFFFF" stroke="#FFFFFF" stroke-width="0.25" stroke-miterlimit="10" d="M158.589,11.944
		c0.283,0.05,0.422,0.177,0.422,0.38v0.057c0,0.302-0.188,0.521-0.562,0.657l-0.16,0.031c-0.278-0.039-0.416-0.178-0.416-0.42
		v-0.017c0-0.304,0.196-0.528,0.59-0.671C158.492,11.962,158.533,11.954,158.589,11.944z"/>
</g>
</svg>
