<?xml version="1.0" encoding="utf-8"?>
<!-- Generator: Adobe Illustrator 16.0.0, SVG Export Plug-In . SVG Version: 6.00 Build 0)  -->
<!DOCTYPE svg PUBLIC "-//W3C//DTD SVG 1.1//EN" "http://www.w3.org/Graphics/SVG/1.1/DTD/svg11.dtd">
<svg version="1.1" id="Calque_1" xmlns="http://www.w3.org/2000/svg" xmlns:xlink="http://www.w3.org/1999/xlink" x="0px" y="0px"
	 width="137.035px" height="56.693px" viewBox="11.968 4.597 137.035 56.693" enable-background="new 11.968 4.597 137.035 56.693"
	 xml:space="preserve">
<g>
	<g>
		<path fill="#FFFFFF" d="M46.999,30.118c-0.648,0.486-1.353,0.739-2.114,0.758c-0.626,0.016-1.047-0.266-1.263-0.841
			c-0.216-0.576-0.301-1.29-0.255-2.142c0.941,0.088,1.795-0.05,2.559-0.417c0.763-0.367,1.412-0.846,1.947-1.441
			c0.533-0.595,0.936-1.255,1.208-1.978c0.271-0.723,0.396-1.392,0.37-2.005c-0.027-0.616-0.224-1.13-0.593-1.545
			c-0.369-0.416-0.923-0.616-1.661-0.597c-1.254,0.032-2.354,0.373-3.299,1.024c-0.947,0.651-1.728,1.448-2.341,2.392
			c-0.615,0.944-1.042,1.968-1.284,3.069c-0.24,1.103-0.288,2.117-0.141,3.041c0.146,0.926,0.513,1.693,1.1,2.305
			c0.586,0.612,1.405,0.906,2.458,0.877c1.029-0.025,1.944-0.313,2.748-0.857c0.735-0.5,1.366-1.074,1.919-1.709
			c0.125-0.514,0.232-1.028,0.324-1.508C48.188,29.118,47.63,29.644,46.999,30.118z M43.974,24.724
			c0.218-0.699,0.465-1.332,0.743-1.899c0.276-0.564,0.572-1.031,0.888-1.398s0.619-0.552,0.909-0.56
			c0.224-0.006,0.356,0.154,0.399,0.477c0.042,0.324,0.018,0.727-0.07,1.211c-0.089,0.484-0.245,0.996-0.466,1.54
			c-0.221,0.542-0.482,1.036-0.785,1.479c-0.303,0.443-0.636,0.789-0.999,1.033c-0.362,0.244-0.736,0.303-1.121,0.179
			C43.59,26.108,43.757,25.421,43.974,24.724z"/>
	</g>
	<path fill="#FFFFFF" d="M89.971,19.973l-0.472,1.509l2.889-1.912c-0.134,0.804-0.139,1.426-0.017,1.862
		c0.123,0.437,0.318,0.75,0.587,0.939c0.268,0.191,0.582,0.269,0.939,0.235c0.358-0.033,0.706-0.128,1.042-0.285
		c-0.716,0.849-1.409,1.482-2.082,1.896c-0.672,0.414-1.271,0.637-1.796,0.671c-0.526,0.033-0.964-0.124-1.309-0.47
		c-0.348-0.347-0.565-0.877-0.656-1.594l-2.956,9.932h-3.055l3.828-12.784H89.971z"/>
	<path fill="#FFFFFF" d="M102.193,20.275c-0.356,1.187-0.692,2.304-1.007,3.354c-0.268,0.896-0.537,1.785-0.807,2.668
		c-0.267,0.883-0.47,1.549-0.604,1.997c-0.269,0.851-0.369,1.393-0.302,1.627c0.068,0.234,0.189,0.375,0.369,0.42
		c0.246,0.066,0.565-0.018,0.958-0.252c0.392-0.235,0.722-0.643,0.99-1.225h0.47c-0.268,0.694-0.582,1.282-0.938,1.762
		c-0.358,0.481-0.733,0.872-1.126,1.174c-0.391,0.301-0.771,0.519-1.141,0.655c-0.371,0.133-0.699,0.199-0.99,0.199
		c-0.404,0-0.785-0.117-1.143-0.351c-0.358-0.234-0.56-0.71-0.604-1.426c-0.471,0.492-1.02,0.911-1.646,1.259
		c-0.626,0.347-1.243,0.519-1.848,0.519c-0.425,0-0.783-0.138-1.073-0.418c-0.292-0.279-0.471-0.705-0.539-1.275
		c-0.066-0.57-0.004-1.292,0.187-2.165c0.189-0.872,0.542-1.889,1.057-3.052c0.514-1.187,1.176-2.198,1.982-3.037
		c0.805-0.838,1.661-1.493,2.568-1.963c0.905-0.47,1.813-0.749,2.72-0.838C100.63,19.816,101.456,19.939,102.193,20.275
		 M96.419,29.4c0.065-0.335,0.167-0.705,0.302-1.107l1.98-6.61c-0.135-0.045-0.269-0.066-0.403-0.066
		c-0.359,0-0.729,0.206-1.109,0.62c-0.38,0.415-0.738,0.94-1.075,1.577c-0.336,0.638-0.644,1.32-0.923,2.046
		c-0.279,0.727-0.48,1.409-0.605,2.047c-0.122,0.637-0.156,1.164-0.1,1.577c0.056,0.414,0.23,0.621,0.521,0.621
		c0.223,0,0.47-0.084,0.739-0.252C96.016,29.686,96.238,29.534,96.419,29.4"/>
	<path fill="#FFFFFF" d="M107.5,24.938c0.963,0.626,1.595,1.382,1.897,2.266c0.302,0.882,0.331,1.727,0.085,2.533
		c-0.248,0.805-0.763,1.494-1.546,2.064c-0.783,0.569-1.791,0.856-3.021,0.856c-0.538,0-1.036-0.111-1.494-0.337
		c-0.46-0.223-0.84-0.519-1.143-0.889c-0.302-0.37-0.51-0.777-0.621-1.225c-0.112-0.447-0.088-0.894,0.066-1.341
		c0.157-0.515,0.398-0.907,0.725-1.175c0.322-0.268,0.677-0.437,1.057-0.503c0.38-0.067,0.757-0.045,1.123,0.066
		c0.371,0.113,0.69,0.292,0.96,0.538c0.268,0.246,0.457,0.548,0.569,0.905c0.111,0.357,0.089,0.75-0.067,1.175
		c-0.426-0.403-0.813-0.542-1.158-0.42c-0.347,0.124-0.593,0.337-0.739,0.638c-0.146,0.301-0.167,0.621-0.066,0.956
		s0.385,0.537,0.857,0.604c0.536,0.067,0.979-0.061,1.324-0.385c0.348-0.324,0.573-0.727,0.674-1.208
		c0.1-0.481,0.06-0.984-0.118-1.511c-0.18-0.525-0.515-0.966-1.008-1.325c-0.872-0.603-1.482-1.325-1.83-2.164
		c-0.348-0.839-0.426-1.64-0.235-2.399c0.191-0.762,0.646-1.408,1.362-1.947c0.716-0.537,1.701-0.805,2.953-0.805
		c1.098,0,1.938,0.28,2.519,0.839c0.584,0.559,0.763,1.286,0.537,2.181c-0.198,0.672-0.56,1.136-1.073,1.394
		c-0.516,0.257-1.02,0.34-1.512,0.251c-0.492-0.088-0.895-0.329-1.208-0.722c-0.314-0.391-0.348-0.9-0.1-1.526
		c0.469,0.336,0.866,0.448,1.19,0.336c0.324-0.112,0.542-0.297,0.655-0.554c0.113-0.257,0.096-0.52-0.051-0.788
		c-0.146-0.269-0.466-0.403-0.958-0.403c-0.447,0-0.827,0.139-1.142,0.417c-0.313,0.281-0.521,0.627-0.621,1.041
		c-0.101,0.415-0.068,0.856,0.1,1.327C106.61,24.166,106.961,24.581,107.5,24.938"/>
	<path fill="#FFFFFF" d="M116.432,24.938c0.963,0.626,1.595,1.382,1.897,2.266c0.302,0.882,0.331,1.727,0.085,2.533
		c-0.246,0.805-0.762,1.494-1.544,2.064c-0.784,0.569-1.791,0.856-3.023,0.856c-0.537,0-1.034-0.111-1.492-0.337
		c-0.461-0.223-0.84-0.519-1.143-0.889c-0.304-0.37-0.511-0.777-0.622-1.225c-0.111-0.447-0.089-0.894,0.067-1.341
		c0.157-0.515,0.398-0.907,0.723-1.175c0.324-0.268,0.677-0.437,1.058-0.503c0.38-0.067,0.757-0.045,1.124,0.066
		c0.37,0.113,0.689,0.292,0.957,0.538c0.269,0.246,0.46,0.548,0.572,0.905c0.111,0.357,0.089,0.75-0.068,1.175
		c-0.425-0.403-0.812-0.542-1.158-0.42c-0.346,0.124-0.593,0.337-0.738,0.638c-0.146,0.301-0.168,0.621-0.066,0.956
		c0.1,0.335,0.385,0.537,0.856,0.604c0.537,0.067,0.977-0.061,1.326-0.385c0.347-0.324,0.57-0.727,0.672-1.208
		c0.101-0.481,0.062-0.984-0.118-1.511c-0.18-0.525-0.516-0.966-1.009-1.325c-0.872-0.603-1.482-1.325-1.829-2.164
		c-0.348-0.839-0.426-1.64-0.235-2.399c0.19-0.762,0.643-1.408,1.36-1.947c0.718-0.537,1.701-0.805,2.954-0.805
		c1.097,0,1.938,0.28,2.521,0.839c0.582,0.559,0.76,1.286,0.537,2.181c-0.202,0.672-0.56,1.136-1.076,1.394
		c-0.516,0.257-1.017,0.34-1.51,0.251c-0.492-0.088-0.896-0.329-1.209-0.722c-0.314-0.391-0.348-0.9-0.1-1.526
		c0.471,0.336,0.867,0.448,1.19,0.336c0.324-0.112,0.543-0.297,0.655-0.554c0.114-0.257,0.094-0.52-0.052-0.788
		c-0.145-0.269-0.465-0.403-0.957-0.403c-0.446,0-0.828,0.139-1.141,0.417c-0.314,0.281-0.521,0.627-0.621,1.041
		c-0.101,0.415-0.067,0.856,0.101,1.327C115.543,24.166,115.895,24.581,116.432,24.938"/>
	<path fill="#FFFFFF" d="M127.008,19.972c0.74,0,1.287,0.214,1.648,0.639c0.357,0.424,0.542,0.944,0.553,1.56
		c0.01,0.615-0.129,1.281-0.42,1.996c-0.29,0.717-0.711,1.365-1.258,1.947c-0.551,0.582-1.209,1.045-1.982,1.392
		c-0.771,0.347-1.628,0.465-2.568,0.352c-0.066,0.851,0,1.566,0.2,2.147c0.201,0.581,0.618,0.873,1.243,0.873
		c0.739,0,1.438-0.23,2.099-0.689c0.661-0.457,1.249-0.978,1.763-1.56c0.581-0.67,1.118-1.432,1.613-2.282h0.536
		c-0.536,1.186-1.175,2.226-1.913,3.12c-0.314,0.404-0.659,0.789-1.042,1.157c-0.381,0.37-0.794,0.7-1.242,0.991
		c-0.447,0.292-0.93,0.525-1.442,0.704c-0.515,0.18-1.055,0.268-1.614,0.268c-1.053,0-1.862-0.313-2.433-0.94
		c-0.573-0.626-0.919-1.402-1.043-2.332c-0.123-0.928-0.05-1.94,0.22-3.037c0.268-1.096,0.722-2.108,1.358-3.036
		c0.639-0.928,1.439-1.706,2.401-2.332C124.649,20.284,125.756,19.972,127.008,19.972 M126.304,20.912
		c-0.292,0-0.599,0.179-0.923,0.537s-0.632,0.817-0.924,1.375c-0.29,0.56-0.554,1.187-0.789,1.88s-0.42,1.375-0.555,2.046
		c0.382,0.135,0.757,0.084,1.125-0.151c0.369-0.235,0.71-0.571,1.024-1.007c0.313-0.436,0.586-0.923,0.822-1.459
		c0.234-0.538,0.404-1.046,0.504-1.527c0.102-0.481,0.136-0.883,0.102-1.208C126.656,21.075,126.529,20.912,126.304,20.912"/>
	<path fill="#FFFFFF" d="M136.378,28.293c-0.136,0.425-0.226,0.767-0.27,1.023c-0.045,0.258-0.05,0.459-0.017,0.604
		c0.034,0.146,0.089,0.247,0.167,0.301c0.079,0.056,0.163,0.095,0.252,0.117c0.202,0.067,0.499-0.017,0.892-0.252
		c0.391-0.234,0.723-0.643,0.989-1.224h0.538c-0.291,0.693-0.62,1.28-0.991,1.761c-0.369,0.481-0.744,0.871-1.123,1.174
		c-0.381,0.303-0.757,0.52-1.126,0.655c-0.37,0.133-0.71,0.201-1.023,0.201c-0.225,0-0.442-0.033-0.655-0.102
		c-0.214-0.066-0.404-0.178-0.572-0.335c-0.166-0.157-0.296-0.37-0.384-0.638c-0.09-0.268-0.135-0.615-0.135-1.04
		c-0.381,0.692-0.772,1.219-1.175,1.578c-0.406,0.358-0.864,0.537-1.377,0.537c-0.292,0-0.576-0.063-0.857-0.185
		c-0.279-0.124-0.499-0.342-0.655-0.655c-0.157-0.313-0.234-0.756-0.234-1.326s0.133-1.302,0.404-2.198l2.517-8.32h3.024
		c-0.382,1.252-0.728,2.415-1.043,3.49c-0.291,0.939-0.57,1.867-0.838,2.785c-0.269,0.917-0.472,1.599-0.604,2.046
		c-0.269,0.851-0.375,1.403-0.319,1.661c0.055,0.258,0.141,0.385,0.253,0.385c0.133,0,0.329-0.189,0.586-0.57
		c0.258-0.38,0.476-0.793,0.655-1.241l0.067-0.235l2.586-8.32h3.022c-0.38,1.252-0.74,2.415-1.076,3.49
		c-0.291,0.939-0.576,1.867-0.855,2.785C136.72,27.165,136.512,27.847,136.378,28.293"/>
	<path fill="#FFFFFF" d="M144.035,19.973l-0.472,1.509l2.889-1.912c-0.135,0.804-0.14,1.426-0.016,1.862
		c0.12,0.437,0.318,0.75,0.585,0.939c0.27,0.191,0.583,0.269,0.939,0.235c0.357-0.033,0.705-0.128,1.042-0.285
		c-0.718,0.849-1.41,1.482-2.081,1.896c-0.672,0.414-1.271,0.637-1.796,0.671c-0.526,0.033-0.964-0.124-1.31-0.47
		c-0.348-0.347-0.566-0.877-0.655-1.594l-2.958,9.932h-3.055l3.828-12.784H144.035z"/>
	<path fill="#FFFFFF" d="M57.45,33.898c-0.542-0.036-1.068-0.111-1.582-0.223c-0.512-0.113-1.003-0.3-1.469-0.56
		c-0.447-0.243-0.802-0.649-1.064-1.218c-0.262-0.567-0.391-1.146-0.391-1.732c0-0.587,0.145-1.113,0.434-1.579
		c0.29-0.466,0.76-0.737,1.414-0.812c0.466-0.055,0.89,0.065,1.273,0.364c0.382,0.299,0.63,0.662,0.742,1.089
		c0.037,0.224,0.056,0.448,0.056,0.671c0,0.225-0.075,0.438-0.225,0.644c-0.112,0.167-0.262,0.355-0.447,0.559
		c-0.187,0.206-0.232,0.438-0.14,0.699c0.093,0.205,0.284,0.387,0.574,0.546c0.289,0.158,0.535,0.256,0.741,0.294
		c0.318,0.054,0.63,0.079,0.938,0.069c0.307-0.009,0.62-0.033,0.937-0.069c1.212-0.131,2.34-0.559,3.386-1.287
		c0.579-0.391,1.109-0.838,1.595-1.341c0.485-0.505,0.941-1.04,1.371-1.61c0.429-0.567,0.83-1.154,1.203-1.76
		c0.374-0.606,0.728-1.199,1.064-1.776c0.578-0.987,1.155-1.962,1.734-2.922c0.58-0.959,1.166-1.925,1.764-2.893
		c0.428-0.746,0.881-1.473,1.357-2.182c0.476-0.707,0.993-1.388,1.552-2.04c0.542-0.634,1.093-1.225,1.653-1.775
		c0.558-0.55,1.192-1.04,1.901-1.469c0.542-0.316,1.101-0.62,1.679-0.908c0.58-0.29,1.185-0.479,1.82-0.574
		c0.13-0.018,0.313-0.032,0.547-0.042c0.231-0.01,0.442,0.009,0.629,0.056c0.188,0.046,0.313,0.13,0.378,0.251
		c0.064,0.122,0.004,0.294-0.184,0.517c-0.111,0.131-0.245,0.224-0.404,0.28c-0.159,0.055-0.312,0.131-0.462,0.224
		c-0.412,0.262-0.798,0.564-1.163,0.908c-0.363,0.345-0.703,0.704-1.019,1.077c-1.177,1.342-2.213,2.806-3.106,4.391
		c-0.896,1.583-1.782,3.158-2.658,4.725c-0.262,0.447-0.514,0.895-0.756,1.341c-0.243,0.449-0.494,0.905-0.755,1.371
		c-0.71,1.287-1.573,2.465-2.589,3.537c-1.016,1.073-2.14,2.008-3.372,2.81c-1.081,0.691-2.234,1.212-3.456,1.567
		c-1.222,0.354-2.458,0.597-3.707,0.727c-0.298,0.038-0.599,0.06-0.895,0.071C58.047,33.92,57.748,33.916,57.45,33.898
		 M74.632,33.954c-0.167-0.019-0.335-0.033-0.503-0.041c-0.167-0.013-0.345-0.033-0.532-0.071c-0.447-0.093-0.891-0.205-1.328-0.337
		c-0.439-0.129-0.864-0.307-1.275-0.532c-0.298-0.166-0.638-0.403-1.019-0.711c-0.384-0.308-0.64-0.628-0.771-0.965
		c-0.037-0.075-0.07-0.149-0.096-0.225c-0.028-0.073-0.061-0.14-0.098-0.195c-0.093-0.188-0.103-0.378-0.027-0.575
		c0.074-0.195,0.186-0.311,0.335-0.349c0.317-0.057,0.56,0.084,0.728,0.419c0.091,0.187,0.242,0.401,0.447,0.643
		c0.204,0.242,0.391,0.429,0.56,0.559c0.578,0.447,1.212,0.69,1.902,0.727c0.69,0.038,1.372-0.06,2.042-0.295
		c0.672-0.231,1.302-0.567,1.889-1.006c0.588-0.438,1.079-0.909,1.47-1.412c0.374-0.503,0.713-1.071,1.021-1.705
		c0.309-0.634,0.528-1.287,0.657-1.958c0.13-0.671,0.155-1.342,0.071-2.013c-0.084-0.672-0.322-1.287-0.714-1.845
		c-0.372-0.542-0.863-0.918-1.469-1.133c-0.606-0.214-1.208-0.358-1.805-0.434c-0.709-0.056-0.905-0.344-0.587-0.867
		c0.093-0.149,0.204-0.224,0.337-0.224c1.287-0.094,2.527-0.359,3.721-0.798c1.193-0.438,2.229-1.169,3.104-2.195
		c0.243-0.26,0.453-0.55,0.631-0.868c0.178-0.316,0.341-0.632,0.49-0.95c0.336-0.708,0.502-1.421,0.502-2.139
		c0-0.717-0.135-1.388-0.404-2.013c-0.271-0.625-0.677-1.178-1.219-1.663c-0.541-0.485-1.186-0.849-1.931-1.091
		c-0.915-0.28-1.86-0.401-2.841-0.364c-0.979,0.037-1.935,0.13-2.868,0.279c-0.785,0.13-1.558,0.307-2.322,0.532
		c-0.765,0.224-1.511,0.493-2.239,0.81c-1.342,0.559-2.565,1.299-3.666,2.223c-1.101,0.922-2.069,1.98-2.91,3.174
		c-0.411,0.559-0.747,1.165-1.008,1.817c-0.263,0.653-0.43,1.324-0.503,2.013c-0.056,0.484-0.056,1.016,0,1.594
		c0.057,0.578,0.28,1.053,0.671,1.426c0.449,0.409,0.918,0.634,1.414,0.67c0.493,0.038,0.988-0.036,1.483-0.224
		c0.494-0.187,0.974-0.434,1.441-0.742c0.467-0.307,0.896-0.59,1.287-0.853c0.186-0.13,0.394-0.204,0.616-0.224
		c0.226-0.018,0.337,0.14,0.337,0.477c-0.019,0.297-0.164,0.558-0.434,0.782c-0.271,0.224-0.509,0.41-0.715,0.559
		c-0.408,0.28-0.829,0.559-1.258,0.838c-0.43,0.279-0.873,0.527-1.33,0.742c-0.458,0.214-0.928,0.378-1.413,0.489
		c-0.486,0.111-0.989,0.149-1.512,0.111c-0.97-0.055-1.805-0.386-2.504-0.993c-0.699-0.605-1.133-1.392-1.301-2.362
		c-0.075-0.484-0.093-0.997-0.056-1.538c0.038-0.541,0.121-1.053,0.251-1.538c0.169-0.652,0.411-1.315,0.729-1.985
		c0.298-0.596,0.639-1.174,1.021-1.734c0.382-0.558,0.826-1.061,1.331-1.509c0.485-0.429,0.989-0.871,1.511-1.329
		c0.522-0.457,1.063-0.853,1.623-1.188c0.485-0.299,0.98-0.592,1.483-0.88C67.58,8.48,68.104,8.224,68.644,8
		c1.063-0.466,2.146-0.834,3.247-1.105c1.099-0.27,2.209-0.499,3.33-0.685c0.597-0.093,1.211-0.162,1.846-0.21
		c0.634-0.046,1.25-0.023,1.848,0.07c0.056,0.019,0.168,0.034,0.336,0.042c0.168,0.009,0.345,0.033,0.532,0.07
		c0.616,0.074,1.235,0.181,1.861,0.32c0.625,0.14,1.226,0.332,1.806,0.575c0.577,0.241,1.123,0.544,1.637,0.908
		c0.513,0.363,0.975,0.806,1.385,1.329c0.765,0.95,1.179,1.999,1.245,3.145c0.065,1.147-0.125,2.27-0.573,3.369
		c-0.225,0.579-0.542,1.097-0.952,1.553c-0.409,0.456-0.877,0.853-1.398,1.188c-0.708,0.466-1.487,0.83-2.337,1.09
		c-0.849,0.261-1.684,0.494-2.504,0.698c0.577,0.374,1.119,0.808,1.622,1.301c0.504,0.494,0.915,1.058,1.231,1.692
		c0.299,0.652,0.49,1.324,0.574,2.013c0.083,0.691,0.075,1.379-0.029,2.068c-0.102,0.691-0.298,1.352-0.587,1.986
		c-0.289,0.634-0.665,1.222-1.132,1.761c-0.505,0.597-1.083,1.09-1.735,1.481c-0.786,0.448-1.627,0.784-2.533,1.009
		C76.455,33.898,75.546,33.991,74.632,33.954"/>
	<path fill="#FFFFFF" d="M31.281,33.811h-0.028c-0.503,0-1.013-0.033-1.525-0.098c-0.515-0.064-1.012-0.136-1.497-0.209
		c-0.616-0.093-1.199-0.253-1.75-0.477c-0.55-0.225-1.124-0.438-1.721-0.643c-0.485-0.149-0.918-0.167-1.301-0.055
		c-0.382,0.112-0.788,0.27-1.217,0.475c-0.466,0.225-0.947,0.411-1.442,0.559c-0.496,0.149-1.002,0.279-1.525,0.393
		c-0.484,0.093-0.961,0.155-1.427,0.182c-0.466,0.028-0.952,0.024-1.456-0.014c-0.56-0.057-1.114-0.145-1.665-0.266
		c-0.55-0.122-1.003-0.435-1.357-0.937c-0.279-0.41-0.406-0.783-0.378-1.119s0.149-0.644,0.363-0.922
		c0.213-0.279,0.495-0.521,0.84-0.728c0.346-0.204,0.703-0.372,1.077-0.502c0.429-0.148,0.844-0.242,1.245-0.279
		c0.401-0.038,0.817-0.084,1.246-0.141c0.671-0.093,1.371-0.139,2.099-0.139c0.727,0,1.427,0.056,2.098,0.167
		c0.298,0.055,0.574,0.088,0.826,0.098c0.252,0.009,0.49-0.098,0.713-0.321c0.485-0.485,0.891-1.02,1.218-1.609
		c0.325-0.586,0.639-1.178,0.937-1.774c0.018-0.056,0.102-0.244,0.252-0.56c0.148-0.317,0.308-0.653,0.477-1.008
		c0.167-0.353,0.316-0.675,0.446-0.964c0.13-0.288,0.187-0.433,0.168-0.433c-0.448-0.094-0.91-0.135-1.385-0.126
		c-0.476,0.01-0.947-0.042-1.414-0.153c-0.502-0.13-0.988-0.307-1.455-0.532c-0.466-0.224-0.886-0.503-1.257-0.838
		c-0.692-0.596-1.162-1.287-1.415-2.07c-0.251-0.782-0.377-1.612-0.377-2.489c0-0.669,0.14-1.345,0.419-2.026
		c0.28-0.681,0.607-1.291,0.979-1.832c0.484-0.708,1.068-1.347,1.749-1.916c0.682-0.567,1.414-1.047,2.197-1.438
		c0.915-0.448,1.875-0.747,2.883-0.896c0.186-0.018,0.429-0.046,0.728-0.083c0.297-0.038,0.596-0.047,0.895-0.028
		c0.298,0.019,0.569,0.08,0.812,0.182c0.243,0.103,0.41,0.294,0.503,0.574c0.094,0.317,0.042,0.517-0.154,0.601
		C30.51,9.5,30.262,9.537,29.964,9.527c-0.299-0.009-0.602-0.046-0.909-0.112c-0.309-0.064-0.527-0.098-0.658-0.098
		c-0.69,0-1.342,0.134-1.959,0.406c-0.615,0.27-1.171,0.629-1.665,1.076c-0.496,0.448-0.915,0.966-1.259,1.553
		c-0.345,0.586-0.593,1.198-0.742,1.831c-0.186,0.728-0.247,1.451-0.181,2.167c0.065,0.719,0.247,1.39,0.546,2.014
		c0.298,0.624,0.717,1.169,1.259,1.636c0.54,0.466,1.193,0.801,1.959,1.006c0.354,0.094,0.663,0.099,0.924,0.015
		c0.261-0.083,0.484-0.219,0.671-0.405c0.186-0.188,0.35-0.414,0.49-0.686c0.14-0.269,0.274-0.535,0.405-0.797
		c0.168-0.336,0.337-0.671,0.504-1.007c0.168-0.335,0.345-0.67,0.532-1.006c0.374-0.672,0.756-1.332,1.148-1.986
		c0.392-0.653,0.82-1.286,1.288-1.9c0.746-1.025,1.576-2.013,2.49-2.965c0.914-0.95,1.903-1.77,2.966-2.46
		c0.784-0.521,1.674-0.974,2.672-1.356c0.998-0.381,1.982-0.526,2.953-0.433c0.634,0.075,1.105,0.307,1.413,0.698
		c0.308,0.392,0.49,0.844,0.546,1.356c0.056,0.513,0.018,1.048-0.111,1.608c-0.131,0.559-0.299,1.043-0.504,1.453
		c-0.187,0.355-0.392,0.699-0.616,1.035c-0.224,0.335-0.466,0.662-0.727,0.979c-0.355,0.484-0.727,0.95-1.119,1.398
		c-0.391,0.447-0.802,0.886-1.231,1.314c-0.857,0.82-1.769,1.599-2.729,2.334c-0.961,0.736-1.973,1.366-3.036,1.887
		c-0.504,0.262-1.021,0.513-1.553,0.756c-0.532,0.242-1.042,0.493-1.525,0.755c-0.28,0.15-0.466,0.364-0.561,0.643
		c-0.094,0.279-0.195,0.55-0.308,0.811c-0.318,0.69-0.671,1.352-1.064,1.986c-0.392,0.634-0.802,1.249-1.231,1.845
		c-0.262,0.373-0.527,0.746-0.798,1.118c-0.27,0.374-0.565,0.718-0.881,1.035c-0.13,0.13-0.298,0.279-0.504,0.447
		c-0.206,0.167-0.317,0.344-0.335,0.531c-0.02,0.15,0.027,0.262,0.14,0.335c0.112,0.076,0.241,0.135,0.392,0.182
		c0.149,0.047,0.303,0.084,0.461,0.112c0.159,0.027,0.284,0.061,0.377,0.098c0.448,0.148,0.9,0.312,1.358,0.487
		c0.457,0.179,0.917,0.337,1.385,0.477c0.466,0.14,0.938,0.243,1.413,0.308c0.476,0.065,0.955,0.06,1.441-0.015
		c0.559-0.093,1.039-0.308,1.441-0.643c0.402-0.336,0.746-0.731,1.036-1.188c0.289-0.457,0.536-0.946,0.742-1.468
		c0.205-0.522,0.383-1.016,0.532-1.483c0.206-0.652,0.303-1.261,0.293-1.831c-0.009-0.569-0.07-1.179-0.182-1.831
		c-0.036-0.187-0.017-0.392,0.057-0.616c0.074-0.224,0.252-0.299,0.532-0.224c0.354,0.075,0.624,0.29,0.81,0.643
		c0.187,0.355,0.313,0.756,0.378,1.204c0.065,0.446,0.093,0.895,0.084,1.342c-0.01,0.446-0.033,0.8-0.07,1.061
		c-0.112,0.727-0.327,1.437-0.644,2.126c-0.392,0.838-0.914,1.613-1.567,2.32c-0.748,0.746-1.608,1.325-2.589,1.734
		C33.366,33.551,32.345,33.773,31.281,33.811 M17.988,32.888c0.503-0.092,0.974-0.27,1.414-0.531
		c0.438-0.262,0.788-0.578,1.048-0.951c0.13-0.186,0.066-0.354-0.195-0.503c-0.261-0.15-0.583-0.269-0.965-0.364
		c-0.383-0.092-0.761-0.167-1.134-0.223c-0.374-0.056-0.617-0.093-0.728-0.112c-0.186-0.018-0.396-0.037-0.63-0.055
		c-0.233-0.019-0.466-0.009-0.7,0.027c-0.234,0.038-0.452,0.103-0.658,0.195c-0.206,0.094-0.363,0.224-0.476,0.392
		c-0.149,0.206-0.195,0.452-0.14,0.741c0.056,0.29,0.168,0.518,0.335,0.686c0.354,0.373,0.783,0.605,1.288,0.698
		C16.953,32.981,17.465,32.981,17.988,32.888 M33.743,19.384c0.821-0.41,1.61-0.9,2.365-1.468c0.756-0.569,1.479-1.188,2.169-1.86
		c0.691-0.671,1.334-1.375,1.932-2.111c0.596-0.736,1.146-1.486,1.65-2.252c0.186-0.279,0.392-0.605,0.616-0.978
		c0.224-0.372,0.429-0.763,0.615-1.175c0.186-0.409,0.316-0.825,0.391-1.244c0.074-0.419,0.047-0.797-0.084-1.133
		c-0.093-0.242-0.262-0.373-0.503-0.392c-0.243-0.018-0.509,0.023-0.798,0.126c-0.29,0.103-0.569,0.233-0.84,0.391
		c-0.271,0.159-0.461,0.275-0.574,0.35c-0.578,0.392-1.072,0.867-1.483,1.427c-0.41,0.558-0.803,1.127-1.175,1.705
		c-0.466,0.727-0.915,1.45-1.343,2.167c-0.43,0.717-0.84,1.469-1.232,2.252c-0.335,0.653-0.666,1.313-0.993,1.985
		c-0.327,0.671-0.667,1.333-1.021,1.985c-0.093,0.206-0.103,0.313-0.028,0.323C33.479,19.491,33.594,19.458,33.743,19.384"/>
</g>
<g>
	<path fill="#FFFFFF" d="M51.497,60.147h-3.331l-0.571-3.807h-4.051l-0.569,3.807h-3.032l3.36-20.989h4.833L51.497,60.147z
		 M43.964,53.491h3.181l-1.59-10.617L43.964,53.491z"/>
	<path fill="#FFFFFF" d="M59.93,60.147c-0.18-0.538-0.3-0.869-0.3-2.578v-3.298c0-1.948-0.66-2.668-2.161-2.668h-1.14v8.544h-3.302
		V39.158h4.982c3.422,0,4.891,1.59,4.891,4.828v1.648c0,2.16-0.689,3.568-2.16,4.258c1.65,0.69,2.191,2.28,2.191,4.469V57.6
		c0,1.02,0.03,1.768,0.36,2.547H59.93L59.93,60.147z M56.329,42.157v6.446h1.292c1.228,0,1.979-0.54,1.979-2.219v-2.067
		c0-1.501-0.511-2.16-1.68-2.16H56.329z"/>
	<polygon fill="#FFFFFF" points="70.044,56.279 72.564,39.158 75.594,39.158 72.354,60.147 67.433,60.147 64.191,39.158 
		67.523,39.158 	"/>
	<polygon fill="#FFFFFF" points="80.427,48.003 84.957,48.003 84.957,51.002 80.427,51.002 80.427,57.148 86.128,57.148 
		86.128,60.149 77.124,60.149 77.124,39.158 86.128,39.158 86.128,42.157 80.427,42.157 	"/>
	<path fill="#FFFFFF" d="M95.072,60.147c-0.182-0.538-0.301-0.869-0.301-2.578v-3.298c0-1.948-0.66-2.668-2.161-2.668h-1.141v8.544
		h-3.301V39.158h4.981c3.422,0,4.891,1.59,4.891,4.828v1.648c0,2.16-0.688,3.568-2.159,4.258c1.649,0.69,2.191,2.28,2.191,4.469
		V57.6c0,1.02,0.028,1.768,0.358,2.547H95.072L95.072,60.147z M91.47,42.157v6.446h1.29c1.231,0,1.981-0.54,1.981-2.219v-2.067
		c0-1.501-0.511-2.16-1.681-2.16H91.47z"/>
	<polygon fill="#FFFFFF" points="103.174,44.944 103.174,60.147 100.202,60.147 100.202,39.158 104.344,39.158 107.736,51.721 
		107.736,39.158 110.677,39.158 110.677,60.147 107.285,60.147 	"/>
	<polygon fill="#FFFFFF" points="116.347,48.003 120.878,48.003 120.878,51.002 116.347,51.002 116.347,57.148 122.049,57.148 
		122.049,60.149 113.045,60.149 113.045,39.158 122.049,39.158 122.049,42.157 116.347,42.157 	"/>
</g>
</svg>
