<?xml version="1.0" encoding="utf-8"?>
<!-- Generator: Adobe Illustrator 16.0.0, SVG Export Plug-In . SVG Version: 6.00 Build 0)  -->
<!DOCTYPE svg PUBLIC "-//W3C//DTD SVG 1.1//EN" "http://www.w3.org/Graphics/SVG/1.1/DTD/svg11.dtd">
<svg version="1.1" id="Calque_1" xmlns="http://www.w3.org/2000/svg" xmlns:xlink="http://www.w3.org/1999/xlink" x="0px" y="0px"
	 width="113.386px" height="56.693px" viewBox="3.542 1.138 113.386 56.693" enable-background="new 3.542 1.138 113.386 56.693"
	 xml:space="preserve">
<g>
	<g>
		<path fill="#FFFFFF" d="M45.441,2.385c-0.041,1.435-0.06,2.87-0.129,4.304c-0.088,1.81-0.36,3.575-1.471,5.097
			c-0.862,1.183-2.093,1.868-3.337,2.553c-4.152,2.287-8.348,4.501-12.423,6.918c-3.827,2.27-7.212,5.171-10.657,7.978
			c-2.893,2.355-5.805,4.689-8.721,7.018c-0.261,0.209-0.62,0.295-0.962,0.451c-0.105-0.623,0.109-0.938,0.509-1.265
			c5.143-4.188,10.29-8.377,15.391-12.618c2.941-2.444,6.193-4.348,9.646-5.954c2.917-1.357,5.752-2.859,8.399-4.713
			c1.896-1.327,2.723-3.146,2.849-5.363c0.068-1.223,0.099-2.449,0.11-3.674c0.005-0.368,0.089-0.618,0.451-0.733
			C45.211,2.385,45.325,2.385,45.441,2.385z"/>
	</g>
	<g>
		<path fill="#FFFFFF" d="M56.945,20.681c0.248-0.018,0.334-0.032,0.421-0.028c1.575,0.054,3.043,0.521,4.439,1.21
			c2.86,1.41,5.165,3.548,7.364,5.792c0.215,0.22,0.426,0.438,0.639,0.659c0.484,0.124,0.97,0.337,1.441,0.671
			c0.117,0.084,0.24,0.157,0.357,0.239c0.338,0.078,0.678,0.166,0.614,0.197c0.323-0.026,0.946-0.08,0.799-0.021
			c0.017-0.003,0.03-0.009,0.047-0.013c-0.044-0.031-0.088-0.062-0.134-0.108c-0.804-0.819-1.632-1.616-2.464-2.409
			c-2.136-2.035-4.291-4.046-6.836-5.581c-1.307-0.788-2.66-1.426-4.231-1.432c-1.733-0.006-3.276-0.593-4.762-1.463
			c-1.433-0.84-2.945-1.544-4.398-2.353c-0.563-0.312-1.108-0.692-1.566-1.138c-0.467-0.454-0.79-1.022-0.552-1.752
			c0.136-0.418-0.145-0.634-0.517-0.626c-0.916,0.02-1.831,0.069-2.743,0.148c-0.18,0.016-0.501,0.252-0.485,0.326
			c0.056,0.251,0.178,0.581,0.378,0.687c0.34,0.182,0.771,0.188,1.142,0.326c0.203,0.076,0.393,0.246,0.535,0.418
			c0.409,0.492,0.694,1.155,1.202,1.484c1.31,0.85,2.692,1.592,4.081,2.31c1.557,0.803,3.158,1.513,4.291,2.936
			c0.393,0.492,0.887,0.904,1.272,1.4c1.206,1.555,2.384,3.132,3.567,4.705c0.283,0.375,0.564,0.698,1.101,0.237
			C60.156,25.365,59.374,22.516,56.945,20.681z"/>
	</g>
	<g>
		<path fill="#FFFFFF" d="M97.761,29.626c0.13-0.021,0.259-0.039,0.395-0.058c0.275-0.037,0.555-0.028,0.834-0.004
			c0.117-0.004,0.233,0,0.353,0.004c0.27-0.002,0.538-0.004,0.809-0.006c-0.968-0.631-1.931-1.269-2.893-1.906
			c-0.589-0.3-1.087-0.746-1.481-1.276c-0.146-0.119-0.272-0.252-0.399-0.391c-1.308-0.335-2.569-0.845-3.771-1.581
			c-1.819-1.113-3.757-1.849-5.927-1.944c-2.588-0.115-4.821,0.391-6.725,2.424c-1.506,1.609-3.367,2.888-5.092,4.294
			c0.481-0.125,0.965-0.249,1.442-0.39c0.396-0.293,0.808-0.588,1.186-0.887c1.243-0.988,2.452-2.018,3.685-3.018
			c0.111-0.092,0.323-0.184,0.428-0.137c1.14,0.494,2.351,0.354,3.515,0.32c1.754-0.049,3.5-0.324,5.253-0.447
			c0.415-0.029,0.908,0.063,1.259,0.275c1.336,0.813,2.666,1.646,3.932,2.564C95.602,28.227,96.676,28.938,97.761,29.626z
			 M81.287,23.788c0.247-0.131,0.458-0.281,0.692-0.359c1.842-0.619,3.663-0.375,5.471,0.158c0.524,0.153,1.037,0.356,1.623,0.563
			C87.467,24.893,82.126,24.661,81.287,23.788z"/>
	</g>
	<g>
		<path fill="#FFFFFF" d="M114.6,40.275c-1.341,0.215-2.698,0.381-4.053,0.396c-4.824,0.062-9.651-0.061-14.475,0.049
			c-4.187,0.097-8.367,0.396-12.552,0.632c-0.295,0.017-0.586,0.016-0.875,0.008c-0.064,0.009-0.121,0.019-0.209,0.029
			c-0.625,0.086-1.252,0.171-1.877,0.254c-0.282,0.024-0.563,0.034-0.841,0.032c-6.843,0.74-13.765,1.772-20.777,1.938
			c0.344,0.13,0.68,0.126,1.016,0.13c4.658,0.057,9.295-0.277,13.923-0.783c3.077-0.334,6.155-0.678,9.241-0.934
			c3.335-0.277,6.676-0.57,10.02-0.65c4.322-0.104,8.651-0.082,12.975,0.037c2.796,0.076,5.521-0.315,8.253-0.76
			c0.354-0.057,0.703-0.152,1.051-0.257C115.141,40.382,114.87,40.341,114.6,40.275z"/>
	</g>
	<g>
		<path fill="#FFFFFF" d="M86.824,29.122c1.336-0.664,2.614-1.488,3.824-2.518c-0.039-0.073-0.077-0.146-0.115-0.223
			c-0.433,0.271-0.889,0.509-1.29,0.815c-0.932,0.71-1.899,1.312-2.899,1.822C86.505,29.048,86.669,29.075,86.824,29.122z"/>
	</g>
</g>
<g>
	<g>
		<polygon fill="#FFFFFF" points="15.024,56.692 13.688,56.692 11.628,47.786 11.628,56.706 10.417,56.706 10.417,45.516 
			12.357,45.516 14.401,54.45 16.376,45.516 18.313,45.516 18.313,56.706 16.997,56.706 16.997,47.702 		"/>
	</g>
	<g>
		<path fill="#FFFFFF" d="M21.148,54.45l-0.482,2.256h-1.278l2.381-11.19h2.008l2.386,11.19h-1.389l-0.479-2.256H21.148z
			 M21.327,53.379h2.771l-1.404-6.461L21.327,53.379z"/>
	</g>
	<g>
		<path fill="#FFFFFF" d="M30.166,45.516c1.938,0,2.825,1.054,2.825,2.774v5.652c0,1.709-0.887,2.764-2.825,2.764h-2.918v-11.19
			H30.166z M30.149,55.573c0.994,0,1.474-0.563,1.474-1.586v-5.754c0-1.021-0.479-1.584-1.491-1.584h-1.496v8.924H30.149z"/>
	</g>
	<g>
		<polygon fill="#FFFFFF" points="38.722,50.467 38.722,51.588 35.681,51.588 35.681,55.573 39.415,55.573 39.415,56.708 
			34.293,56.708 34.293,45.516 39.415,45.516 39.415,46.649 35.681,46.649 35.681,50.467 		"/>
	</g>
	<g>
		<rect x="43.458" y="45.516" fill="#FFFFFF" width="1.386" height="11.19"/>
	</g>
	<g>
		<polygon fill="#FFFFFF" points="47.493,56.706 46.249,56.706 46.249,45.516 48.012,45.516 50.89,53.605 50.89,45.516 
			52.119,45.516 52.119,56.706 50.678,56.706 47.493,47.655 		"/>
	</g>
	<path fill="#FFFFFF" d="M61.8,48.22v1.003h-1.318v-1.071c0-1.006-0.445-1.611-1.458-1.611c-0.995,0-1.458,0.605-1.458,1.611v5.916
		c0,1.012,0.463,1.616,1.458,1.616c1.012,0,1.458-0.604,1.458-1.616v-1.455H61.8v1.392c0,1.692-0.89,2.813-2.811,2.813
		c-1.902,0-2.792-1.119-2.792-2.813V48.22c0-1.698,0.89-2.816,2.792-2.816C60.91,45.403,61.8,46.521,61.8,48.22"/>
	<g>
		<polygon fill="#FFFFFF" points="64.449,51.67 64.449,56.706 63.064,56.706 63.064,45.516 64.449,45.516 64.449,50.552 
			67.51,50.552 67.51,45.516 68.895,45.516 68.895,56.706 67.51,56.706 67.51,51.67 		"/>
	</g>
	<g>
		<polygon fill="#FFFFFF" points="74.75,50.467 74.75,51.588 71.714,51.588 71.714,55.573 75.443,55.573 75.443,56.708 
			70.321,56.708 70.321,45.516 75.443,45.516 75.443,46.649 71.714,46.649 71.714,50.467 		"/>
	</g>
	<g>
		<polygon fill="#FFFFFF" points="82.188,56.706 76.533,56.706 76.533,55.583 80.8,46.649 76.724,46.649 76.724,45.516 
			82.222,45.516 82.222,46.633 77.939,55.573 82.188,55.573 		"/>
	</g>
	<g>
		<polygon fill="#FFFFFF" points="86.978,56.706 85.734,56.706 85.734,45.516 87.494,45.516 90.375,53.605 90.375,45.516 
			91.601,45.516 91.601,56.706 90.162,56.706 86.978,47.655 		"/>
	</g>
	<g>
		<path fill="#FFFFFF" d="M93.398,48.22c0-1.711,0.943-2.816,2.848-2.816c1.92,0,2.863,1.105,2.863,2.816v5.785
			c0,1.691-0.943,2.813-2.863,2.813c-1.903,0-2.848-1.119-2.848-2.813V48.22z M94.768,54.067c0,1.024,0.479,1.616,1.478,1.616
			c1.009,0,1.476-0.592,1.476-1.616v-5.912c0-1.013-0.467-1.619-1.476-1.619c-0.998,0-1.478,0.606-1.478,1.619V54.067z"/>
	</g>
	<g>
		<path fill="#FFFFFF" d="M101.742,54.067c0,1.012,0.446,1.616,1.458,1.616c0.996,0,1.439-0.604,1.439-1.616v-8.552h1.298v8.489
			c0,1.691-0.867,2.826-2.791,2.826c-1.898,0-2.771-1.135-2.771-2.826v-8.489h1.367V54.067z"/>
	</g>
	<path fill="#FFFFFF" d="M112.699,48.2v0.307h-1.313v-0.373c0-1.005-0.427-1.6-1.425-1.6c-0.996,0-1.422,0.595-1.422,1.586
		c0,2.511,4.18,2.75,4.18,5.898c0,1.697-0.907,2.797-2.811,2.797s-2.793-1.1-2.793-2.797v-0.641h1.299v0.707
		c0,1.006,0.467,1.598,1.461,1.598c0.992,0,1.455-0.592,1.455-1.598c0-2.498-4.16-2.736-4.16-5.887c0-1.725,0.892-2.802,2.758-2.802
		C111.81,45.399,112.699,46.509,112.699,48.2"/>
</g>
</svg>
