<?xml version="1.0" encoding="utf-8"?>
<!-- Generator: Adobe Illustrator 16.0.0, SVG Export Plug-In . SVG Version: 6.00 Build 0)  -->
<!DOCTYPE svg PUBLIC "-//W3C//DTD SVG 1.1//EN" "http://www.w3.org/Graphics/SVG/1.1/DTD/svg11.dtd">
<svg version="1.1" id="Calque_1" xmlns="http://www.w3.org/2000/svg" xmlns:xlink="http://www.w3.org/1999/xlink" x="0px" y="0px"
	 width="203.988px" height="150.438px" viewBox="18.843 3.166 203.988 150.438"
	 enable-background="new 18.843 3.166 203.988 150.438" xml:space="preserve">
<g>
	<path fill="#FFFFFF" d="M122.001,13.358c-3.427-7.188-11.284-10.143-19.703-10.13c-9.906,0.016-17.911,6.049-24.899,11.596
		c-17.467,13.868-30.008,31.62-55.434,33.762c-2.532,0.212-2.556,3.743,0,3.531c19.857-1.672,33.23-11.889,46.421-24.253
		c6.921-6.484,13.903-12.839,22.324-17.811c8.987-5.309,23.225-4.619,27.853,5.089C119.561,17.232,122.988,15.429,122.001,13.358"/>
	<path fill="#FFFFFF" d="M18.989,50.818c5.688,12.875,28.024,11.595,40.407,9.918c21.089-2.846,30.855-24.521,52.956-24.562
		c2.568-0.005,2.568-3.535,0-3.53c-8.616,0.015-15.825,2.618-22.678,7.157c-7.581,5.016-14.094,12.402-22.987,15.681
		c-10.444,3.849-38.618,6.263-43.859-5.602C21.901,47.787,18.051,48.695,18.989,50.818"/>
	<path fill="#FFFFFF" d="M123.107,15.14c4.381-9.189,17.32-10.256,26.353-5.93c9.223,4.419,16.711,11.982,23.824,18.652
		c13.19,12.366,26.568,22.581,46.423,24.252c2.556,0.215,2.533-3.318,0-3.53c-25.18-2.119-38.298-19.743-55.431-33.76
		c-6.763-5.53-14.061-10.524-23.406-11.516c-8.743-0.927-17.71,2.73-21.198,10.052C118.683,15.429,122.111,17.231,123.107,15.14"/>
	<path fill="#FFFFFF" d="M218.845,49.881c-5.324,12.052-32.404,8.954-43.045,5.87c-9-2.609-16.125-10.604-23.402-15.669
		c-6.826-4.756-14.369-7.419-23.082-7.434c-2.568-0.005-2.568,3.525,0,3.529c21.699,0.042,31.379,20.911,51.719,24.375
		c12.492,2.129,35.892,3.303,41.65-9.734C223.623,48.695,219.771,47.787,218.845,49.881"/>
	<path fill="#FFFFFF" d="M73.514,85.482c0.006,9.323,0.064,21.853,10.186,26.195c2.275,0.981,4.258-2.334,1.963-3.32
		c-8.715-3.742-8.252-14.911-8.258-22.875C77.403,83,73.513,83,73.514,85.482"/>
	<path fill="#FFFFFF" d="M82.736,102.604c0.177,9.879,3.681,19.662,12.489,25.053c2.139,1.314,4.09-2.02,1.962-3.32
		c-7.618-4.662-10.411-13.252-10.562-21.732C86.579,100.121,82.689,100.117,82.736,102.604"/>
	<path fill="#FFFFFF" d="M94.261,111.731c-0.621,17.569,12.156,31.729,25.354,41.871c1.954,1.503,4.732-1.198,2.752-2.722
		c-12.384-9.513-24.802-22.59-24.217-39.15C98.24,109.247,94.349,109.254,94.261,111.731"/>
	<path fill="#FFFFFF" d="M164.297,85.482c-0.005,7.964,0.455,19.136-8.259,22.875c-2.296,0.986-0.314,4.302,1.963,3.32
		c10.123-4.34,10.179-16.872,10.186-26.195C168.189,83,164.298,83,164.297,85.482"/>
	<path fill="#FFFFFF" d="M155.074,102.604c-0.154,8.48-2.942,17.07-10.563,21.732c-2.13,1.301-0.178,4.635,1.96,3.32
		c8.811-5.388,12.314-15.174,12.493-25.053C159.009,100.117,155.12,100.121,155.074,102.604"/>
	<path fill="#FFFFFF" d="M143.547,111.731c0.59,16.56-11.831,29.638-24.209,39.151c-1.979,1.522,0.793,4.225,2.746,2.721
		c13.201-10.139,25.979-24.302,25.354-41.871C147.349,109.254,143.458,109.247,143.547,111.731"/>
	<polygon fill="#FFFFFF" points="81.6,76.063 80.475,76.063 78.737,67.721 78.737,76.078 77.717,76.078 77.717,65.592 
		79.353,65.592 81.076,73.964 82.74,65.592 84.374,65.592 84.374,76.078 83.264,76.078 83.264,67.644 	"/>
	<path fill="#FFFFFF" d="M86.762,73.964l-0.406,2.113h-1.079l2.008-10.485h1.694l2.009,10.485h-1.17l-0.403-2.113H86.762z
		 M86.912,72.961h2.336l-1.182-6.052L86.912,72.961z"/>
	<path fill="#FFFFFF" d="M94.366,65.592c1.633,0,2.382,0.987,2.382,2.604v5.292c0,1.6-0.75,2.589-2.382,2.589h-2.461V65.592H94.366z
		 M94.35,75.014c0.839,0,1.245-0.524,1.245-1.483v-5.392c0-0.958-0.405-1.482-1.258-1.482h-1.261v8.358L94.35,75.014L94.35,75.014z"
		/>
	<polygon fill="#FFFFFF" points="101.579,70.234 101.579,71.285 99.016,71.285 99.016,75.014 102.162,75.014 102.162,76.081 
		97.845,76.081 97.845,65.592 102.162,65.592 102.162,66.656 99.016,66.656 99.016,70.234 	"/>
	<rect x="105.57" y="65.592" fill="#FFFFFF" width="1.168" height="10.485"/>
	<polygon fill="#FFFFFF" points="108.972,76.078 107.922,76.078 107.922,65.592 109.408,65.592 111.835,73.172 111.835,65.592 
		112.871,65.592 112.871,76.078 111.658,76.078 108.972,67.599 	"/>
	<path fill="#FFFFFF" d="M121.031,68.128v0.94h-1.11v-1.004c0-0.944-0.377-1.512-1.23-1.512c-0.838,0-1.228,0.568-1.228,1.512v5.542
		c0,0.944,0.391,1.513,1.228,1.513c0.854,0,1.23-0.569,1.23-1.513v-1.365h1.11v1.302c0,1.588-0.75,2.637-2.368,2.637
		c-1.604,0-2.355-1.049-2.355-2.637v-5.417c0-1.59,0.751-2.638,2.355-2.638C120.282,65.488,121.031,66.536,121.031,68.128"/>
	<polygon fill="#FFFFFF" points="123.265,71.358 123.265,76.078 122.097,76.078 122.097,65.592 123.265,65.592 123.265,70.312 
		125.846,70.312 125.846,65.592 127.012,65.592 127.012,76.078 125.846,76.078 125.846,71.358 	"/>
	<polygon fill="#FFFFFF" points="131.949,70.234 131.949,71.285 129.387,71.285 129.387,75.014 132.534,75.014 132.534,76.081 
		128.216,76.081 128.216,65.592 132.534,65.592 132.534,66.656 129.387,66.656 129.387,70.234 	"/>
	<polygon fill="#FFFFFF" points="138.219,76.078 133.453,76.078 133.453,75.026 137.049,66.656 133.615,66.656 133.615,65.592 
		138.248,65.592 138.248,66.641 134.636,75.014 138.219,75.014 	"/>
	<polygon fill="#FFFFFF" points="142.257,76.078 141.208,76.078 141.208,65.592 142.692,65.592 145.122,73.172 145.122,65.592 
		146.156,65.592 146.156,76.078 144.942,76.078 142.257,67.599 	"/>
	<path fill="#FFFFFF" d="M147.671,68.128c0-1.604,0.794-2.638,2.399-2.638c1.618,0,2.415,1.034,2.415,2.638v5.419
		c0,1.585-0.797,2.633-2.415,2.633c-1.605,0-2.399-1.048-2.399-2.633V68.128z M148.825,73.606c0,0.96,0.404,1.513,1.245,1.513
		c0.852,0,1.243-0.552,1.243-1.513v-5.541c0-0.947-0.392-1.514-1.243-1.514c-0.841,0-1.245,0.567-1.245,1.514V73.606z"/>
	<path fill="#FFFFFF" d="M154.705,73.606c0,0.944,0.375,1.513,1.229,1.513c0.84,0,1.213-0.569,1.213-1.513v-8.014h1.096v7.954
		c0,1.585-0.733,2.652-2.355,2.652c-1.6,0-2.336-1.065-2.336-2.652v-7.954h1.154V73.606z"/>
	<path fill="#FFFFFF" d="M163.942,68.108v0.287h-1.108v-0.349c0-0.942-0.359-1.494-1.201-1.494c-0.84,0-1.199,0.552-1.199,1.483
		c0,2.353,3.523,2.576,3.523,5.527c0,1.587-0.766,2.619-2.369,2.619s-2.354-1.03-2.354-2.619v-0.6h1.096v0.661
		c0,0.944,0.391,1.497,1.23,1.497c0.836,0,1.226-0.552,1.226-1.497c0-2.337-3.507-2.562-3.507-5.514c0-1.617,0.75-2.622,2.323-2.622
		C163.191,65.486,163.942,66.522,163.942,68.108"/>
</g>
</svg>
